<svg width="2335" height="2315" xmlns="http://www.w3.org/2000/svg" xmlns:xlink="http://www.w3.org/1999/xlink" xml:space="preserve" overflow="hidden"><defs><clipPath id="clip0"><rect x="2" y="1499" width="2335" height="2315"/></clipPath></defs><g clip-path="url(#clip0)" transform="translate(-2 -1499)"><rect x="3.0001" y="1500" width="2332" height="2312" fill="#FFFFFF"/><g><path d="M112.5 3180.6 2284.5 3180.6M112.5 2878.59 2284.5 2878.59M112.5 2576.58 2284.5 2576.58M112.5 2274.57 2284.5 2274.57M112.5 1971.56 2284.5 1971.56M112.5 1669.5 2284.5 1669.5" stroke="#D9D9D9" stroke-width="3.4375" stroke-linejoin="round" stroke-miterlimit="10" fill="none"/></g><g><path d="M112.5 3482.5 2284.5 3482.5" stroke="#D9D9D9" stroke-width="3.4375" stroke-linejoin="round" stroke-miterlimit="10" fill="none" fill-rule="evenodd"/></g><g><path d="M112.5 3482.5 112.5 3495.5M267.509 3482.5 267.509 3495.5M422.514 3482.5 422.514 3495.5M578.519 3482.5 578.519 3495.5M733.524 3482.5 733.524 3495.5M888.529 3482.5 888.529 3495.5M1043.53 3482.5 1043.53 3495.5M1198.54 3482.5 1198.54 3495.5M1353.54 3482.5 1353.54 3495.5M1508.55 3482.5 1508.55 3495.5M1663.55 3482.5 1663.55 3495.5M1819.56 3482.5 1819.56 3495.5M1974.56 3482.5 1974.56 3495.5M2129.57 3482.5 2129.57 3495.5M2284.5 3482.5 2284.5 3495.5" stroke="#D9D9D9" stroke-width="3.4375" stroke-linejoin="round" stroke-miterlimit="10" fill="none"/></g><g><path d="M190.5 1941.5 345.512 2060.57 500.517 2178.57 655.522 2297.58 810.527 2415.58 965.532 2534.58 1120.54 2652.59 1276.54 2771.59 1431.55 2889.59 1586.55 3008.6 1741.56 3126.6 1896.56 3245.61 2051.57 3364.61 2206.5 3482.5" stroke="#747474" stroke-width="4.58333" stroke-linecap="round" stroke-linejoin="round" stroke-miterlimit="10" stroke-dasharray="13.75 18.3333" fill="none"/></g><g><path d="M190 1942 345.011 2032.07 500.016 2032.07 656.021 2032.07 811.027 2032.07 966.032 2123.07 1121.04 2365.08 1276.04 2455.08 1431.05 2516.08 1586.05 2667.09 1741.06 2757.09 1897.06 2999.1 2052.07 3120.1 2207 3332" stroke="#E87331" stroke-width="10.3125" stroke-linecap="round" stroke-linejoin="round" stroke-miterlimit="10" fill="none"/></g><g><path d="M201.465 1941.4C201.465 1947.47 196.54 1952.4 190.465 1952.4 184.39 1952.4 179.465 1947.47 179.465 1941.4 179.465 1935.32 184.39 1930.4 190.465 1930.4 196.54 1930.4 201.465 1935.32 201.465 1941.4Z" stroke="#E87331" stroke-width="6.875" stroke-linejoin="round" stroke-miterlimit="10" fill="#E87331"/><path d="M356.465 2032.4C356.465 2038.47 351.54 2043.4 345.465 2043.4 339.39 2043.4 334.465 2038.47 334.465 2032.4 334.465 2026.32 339.39 2021.4 345.465 2021.4 351.54 2021.4 356.465 2026.32 356.465 2032.4Z" stroke="#E87331" stroke-width="6.875" stroke-linejoin="round" stroke-miterlimit="10" fill="#E87331"/><path d="M511.465 2032.4C511.465 2038.47 506.54 2043.4 500.465 2043.4 494.39 2043.4 489.465 2038.47 489.465 2032.4 489.465 2026.32 494.39 2021.4 500.465 2021.4 506.54 2021.4 511.465 2026.32 511.465 2032.4Z" stroke="#E87331" stroke-width="6.875" stroke-linejoin="round" stroke-miterlimit="10" fill="#E87331"/><path d="M666.465 2032.4C666.465 2038.47 661.54 2043.4 655.465 2043.4 649.39 2043.4 644.465 2038.47 644.465 2032.4 644.465 2026.32 649.39 2021.4 655.465 2021.4 661.54 2021.4 666.465 2026.32 666.465 2032.4Z" stroke="#E87331" stroke-width="6.875" stroke-linejoin="round" stroke-miterlimit="10" fill="#E87331"/><path d="M821.465 2032.4C821.465 2038.47 816.54 2043.4 810.465 2043.4 804.39 2043.4 799.465 2038.47 799.465 2032.4 799.465 2026.32 804.39 2021.4 810.465 2021.4 816.54 2021.4 821.465 2026.32 821.465 2032.4Z" stroke="#E87331" stroke-width="6.875" stroke-linejoin="round" stroke-miterlimit="10" fill="#E87331"/><path d="M976.465 2123.4C976.465 2129.47 971.54 2134.4 965.465 2134.4 959.39 2134.4 954.465 2129.47 954.465 2123.4 954.465 2117.32 959.39 2112.4 965.465 2112.4 971.54 2112.4 976.465 2117.32 976.465 2123.4Z" stroke="#E87331" stroke-width="6.875" stroke-linejoin="round" stroke-miterlimit="10" fill="#E87331"/><path d="M1132.46 2364.4C1132.46 2370.47 1127.54 2375.4 1121.47 2375.4 1115.39 2375.4 1110.47 2370.47 1110.47 2364.4 1110.47 2358.32 1115.39 2353.4 1121.47 2353.4 1127.54 2353.4 1132.46 2358.32 1132.46 2364.4Z" stroke="#E87331" stroke-width="6.875" stroke-linejoin="round" stroke-miterlimit="10" fill="#E87331"/><path d="M1287.46 2455.4C1287.46 2461.47 1282.54 2466.4 1276.47 2466.4 1270.39 2466.4 1265.47 2461.47 1265.47 2455.4 1265.47 2449.32 1270.39 2444.4 1276.47 2444.4 1282.54 2444.4 1287.46 2449.32 1287.46 2455.4Z" stroke="#E87331" stroke-width="6.875" stroke-linejoin="round" stroke-miterlimit="10" fill="#E87331"/><path d="M1442.46 2515.4C1442.46 2521.47 1437.54 2526.4 1431.46 2526.4 1425.39 2526.4 1420.47 2521.47 1420.47 2515.4 1420.47 2509.32 1425.39 2504.4 1431.46 2504.4 1437.54 2504.4 1442.46 2509.32 1442.46 2515.4Z" stroke="#E87331" stroke-width="6.875" stroke-linejoin="round" stroke-miterlimit="10" fill="#E87331"/><path d="M1597.46 2666.4C1597.46 2672.47 1592.54 2677.4 1586.46 2677.4 1580.39 2677.4 1575.47 2672.47 1575.47 2666.4 1575.47 2660.32 1580.39 2655.4 1586.46 2655.4 1592.54 2655.4 1597.46 2660.32 1597.46 2666.4Z" stroke="#E87331" stroke-width="6.875" stroke-linejoin="round" stroke-miterlimit="10" fill="#E87331"/><path d="M1752.46 2757.4C1752.46 2763.47 1747.54 2768.4 1741.46 2768.4 1735.39 2768.4 1730.47 2763.47 1730.47 2757.4 1730.47 2751.32 1735.39 2746.4 1741.46 2746.4 1747.54 2746.4 1752.46 2751.32 1752.46 2757.4Z" stroke="#E87331" stroke-width="6.875" stroke-linejoin="round" stroke-miterlimit="10" fill="#E87331"/><path d="M1907.46 2999.4C1907.46 3005.47 1902.54 3010.4 1896.46 3010.4 1890.39 3010.4 1885.47 3005.47 1885.47 2999.4 1885.47 2993.32 1890.39 2988.4 1896.46 2988.4 1902.54 2988.4 1907.46 2993.32 1907.46 2999.4Z" stroke="#E87331" stroke-width="6.875" stroke-linejoin="round" stroke-miterlimit="10" fill="#E87331"/><path d="M2062.46 3120.4C2062.46 3126.47 2057.54 3131.4 2051.47 3131.4 2045.39 3131.4 2040.47 3126.47 2040.47 3120.4 2040.47 3114.32 2045.39 3109.4 2051.47 3109.4 2057.54 3109.4 2062.46 3114.32 2062.46 3120.4Z" stroke="#E87331" stroke-width="6.875" stroke-linejoin="round" stroke-miterlimit="10" fill="#E87331"/><path d="M2217.46 3331.4C2217.46 3337.47 2212.54 3342.4 2206.46 3342.4 2200.39 3342.4 2195.47 3337.47 2195.47 3331.4 2195.47 3325.32 2200.39 3320.4 2206.46 3320.4 2212.54 3320.4 2217.46 3325.32 2217.46 3331.4Z" stroke="#E87331" stroke-width="6.875" stroke-linejoin="round" stroke-miterlimit="10" fill="#E87331"/></g><g><text fill="#595959" font-family="Aptos Narrow,Aptos Narrow_MSFontService,sans-serif" font-weight="400" font-stretch="semi-condensed" font-size="41" transform="matrix(1 0 0 1 53.6571 3494)">0</text></g><g><text fill="#595959" font-family="Aptos Narrow,Aptos Narrow_MSFontService,sans-serif" font-weight="400" font-stretch="semi-condensed" font-size="41" transform="matrix(1 0 0 1 32.7571 3192)">10</text></g><g><text fill="#595959" font-family="Aptos Narrow,Aptos Narrow_MSFontService,sans-serif" font-weight="400" font-stretch="semi-condensed" font-size="41" transform="matrix(1 0 0 1 32.7571 2890)">20</text></g><g><text fill="#595959" font-family="Aptos Narrow,Aptos Narrow_MSFontService,sans-serif" font-weight="400" font-stretch="semi-condensed" font-size="41" transform="matrix(1 0 0 1 32.7571 2588)">30</text></g><g><text fill="#595959" font-family="Aptos Narrow,Aptos Narrow_MSFontService,sans-serif" font-weight="400" font-stretch="semi-condensed" font-size="41" transform="matrix(1 0 0 1 32.7571 2286)">40</text></g><g><text fill="#595959" font-family="Aptos Narrow,Aptos Narrow_MSFontService,sans-serif" font-weight="400" font-stretch="semi-condensed" font-size="41" transform="matrix(1 0 0 1 32.7571 1984)">50</text></g><g><text fill="#595959" font-family="Aptos Narrow,Aptos Narrow_MSFontService,sans-serif" font-weight="400" font-stretch="semi-condensed" font-size="41" transform="matrix(1 0 0 1 32.7571 1681)">60</text></g><g><text fill="#595959" font-family="Aptos Narrow,Aptos Narrow_MSFontService,sans-serif" font-weight="400" font-stretch="semi-condensed" font-size="41" transform="matrix(0.707107 -0.707107 0.707107 0.707107 66.5895 3669)">31.03.2025</text></g><g><text fill="#595959" font-family="Aptos Narrow,Aptos Narrow_MSFontService,sans-serif" font-weight="400" font-stretch="semi-condensed" font-size="41" transform="matrix(0.707107 -0.707107 0.707107 0.707107 221.724 3669)">01.04.2025</text></g><g><text fill="#595959" font-family="Aptos Narrow,Aptos Narrow_MSFontService,sans-serif" font-weight="400" font-stretch="semi-condensed" font-size="41" transform="matrix(0.707107 -0.707107 0.707107 0.707107 376.859 3669)">02.04.2025</text></g><g><text fill="#595959" font-family="Aptos Narrow,Aptos Narrow_MSFontService,sans-serif" font-weight="400" font-stretch="semi-condensed" font-size="41" transform="matrix(0.707107 -0.707107 0.707107 0.707107 531.993 3669)">03.04.2025</text></g><g><text fill="#595959" font-family="Aptos Narrow,Aptos Narrow_MSFontService,sans-serif" font-weight="400" font-stretch="semi-condensed" font-size="41" transform="matrix(0.707107 -0.707107 0.707107 0.707107 687.128 3669)">04.04.2025</text></g><g><text fill="#595959" font-family="Aptos Narrow,Aptos Narrow_MSFontService,sans-serif" font-weight="400" font-stretch="semi-condensed" font-size="41" transform="matrix(0.707107 -0.707107 0.707107 0.707107 842.263 3669)">05.04.2025</text></g><g><text fill="#595959" font-family="Aptos Narrow,Aptos Narrow_MSFontService,sans-serif" font-weight="400" font-stretch="semi-condensed" font-size="41" transform="matrix(0.707107 -0.707107 0.707107 0.707107 997.397 3669)">06.04.2025</text></g><g><text fill="#595959" font-family="Aptos Narrow,Aptos Narrow_MSFontService,sans-serif" font-weight="400" font-stretch="semi-condensed" font-size="41" transform="matrix(0.707107 -0.707107 0.707107 0.707107 1152.53 3669)">07.04.2025</text></g><g><text fill="#595959" font-family="Aptos Narrow,Aptos Narrow_MSFontService,sans-serif" font-weight="400" font-stretch="semi-condensed" font-size="41" transform="matrix(0.707107 -0.707107 0.707107 0.707107 1307.67 3669)">08.04.2025</text></g><g><text fill="#595959" font-family="Aptos Narrow,Aptos Narrow_MSFontService,sans-serif" font-weight="400" font-stretch="semi-condensed" font-size="41" transform="matrix(0.707107 -0.707107 0.707107 0.707107 1462.8 3669)">09.04.2025</text></g><g><text fill="#595959" font-family="Aptos Narrow,Aptos Narrow_MSFontService,sans-serif" font-weight="400" font-stretch="semi-condensed" font-size="41" transform="matrix(0.707107 -0.707107 0.707107 0.707107 1617.94 3669)">10.04.2025</text></g><g><text fill="#595959" font-family="Aptos Narrow,Aptos Narrow_MSFontService,sans-serif" font-weight="400" font-stretch="semi-condensed" font-size="41" transform="matrix(0.707107 -0.707107 0.707107 0.707107 1773.07 3669)">11.04.2025</text></g><g><text fill="#595959" font-family="Aptos Narrow,Aptos Narrow_MSFontService,sans-serif" font-weight="400" font-stretch="semi-condensed" font-size="41" transform="matrix(0.707107 -0.707107 0.707107 0.707107 1928.21 3669)">12.04.2025</text></g><g><text fill="#595959" font-family="Aptos Narrow,Aptos Narrow_MSFontService,sans-serif" font-weight="400" font-stretch="semi-condensed" font-size="41" transform="matrix(0.707107 -0.707107 0.707107 0.707107 2083.34 3669)">13.04.2025</text></g><g><text fill="#595959" font-family="Aptos Narrow,Aptos Narrow_MSFontService,sans-serif" font-weight="400" font-stretch="semi-condensed" font-size="64" transform="matrix(1 0 0 1 837.109 1594)">Burndown</text></g><g><text fill="#595959" font-family="Aptos Narrow,Aptos Narrow_MSFontService,sans-serif" font-weight="400" font-stretch="semi-condensed" font-size="64" transform="matrix(1 0 0 1 1097.37 1594)">-</text></g><g><text fill="#595959" font-family="Aptos Narrow,Aptos Narrow_MSFontService,sans-serif" font-weight="400" font-stretch="semi-condensed" font-size="64" transform="matrix(1 0 0 1 1117.01 1594)">Chart Sprint #2</text></g><g><path d="M687.5 3745.5 802.5 3745.5" stroke="#747474" stroke-width="4.58333" stroke-linecap="round" stroke-linejoin="round" stroke-miterlimit="10" stroke-dasharray="13.75 18.3333" fill="none" fill-rule="evenodd"/></g><g><text fill="#595959" font-family="Aptos Narrow,Aptos Narrow_MSFontService,sans-serif" font-weight="400" font-stretch="semi-condensed" font-size="41" transform="matrix(1 0 0 1 815.388 3758)">Optimum Desending</text></g><g><path d="M1233 3746 1348 3746" stroke="#E87331" stroke-width="10.3125" stroke-linecap="round" stroke-linejoin="round" stroke-miterlimit="10" fill="none" fill-rule="evenodd"/></g><g><path d="M1301 3745C1301 3751.07 1296.07 3756 1290 3756 1283.92 3756 1279 3751.07 1279 3745 1279 3738.92 1283.92 3734 1290 3734 1296.07 3734 1301 3738.92 1301 3745Z" stroke="#E87331" stroke-width="6.875" stroke-linejoin="round" stroke-miterlimit="10" fill="#E87331"/></g><g><text fill="#595959" font-family="Aptos Narrow,Aptos Narrow_MSFontService,sans-serif" font-weight="400" font-stretch="semi-condensed" font-size="41" transform="matrix(1 0 0 1 1360.84 3758)">Realität Desending</text></g><rect x="3.49993" y="1500.5" width="2332" height="2312" stroke="#D9D9D9" stroke-width="3.4375" stroke-linejoin="round" stroke-miterlimit="10" fill="none"/></g></svg>