<svg width="2338" height="2338" xmlns="http://www.w3.org/2000/svg" xmlns:xlink="http://www.w3.org/1999/xlink" xml:space="preserve" overflow="hidden"><defs><clipPath id="clip0"><rect x="6" y="867" width="2338" height="2338"/></clipPath></defs><g clip-path="url(#clip0)" transform="translate(-6 -867)"><rect x="6.99987" y="868" width="2335" height="2335" fill="#FFFFFF"/><g><path d="M116.5 2643.59 2291.5 2643.59M116.5 2414.58 2291.5 2414.58M116.5 2185.57 2291.5 2185.57M116.5 1955.56 2291.5 1955.56M116.5 1726.56 2291.5 1726.56M116.5 1496.55 2291.5 1496.55M116.5 1267.54 2291.5 1267.54M116.5 1037.5 2291.5 1037.5" stroke="#D9D9D9" stroke-width="3.4375" stroke-linejoin="round" stroke-miterlimit="10" fill="none"/></g><g><path d="M116.5 2873.5 2291.5 2873.5" stroke="#D9D9D9" stroke-width="3.4375" stroke-linejoin="round" stroke-miterlimit="10" fill="none" fill-rule="evenodd"/></g><g><path d="M116.5 2873.5 116.5 2886.5M314.51 2873.5 314.51 2886.5M511.517 2873.5 511.517 2886.5M709.523 2873.5 709.523 2886.5M907.53 2873.5 907.53 2886.5M1105.54 2873.5 1105.54 2886.5M1302.54 2873.5 1302.54 2886.5M1500.55 2873.5 1500.55 2886.5M1698.56 2873.5 1698.56 2886.5M1896.56 2873.5 1896.56 2886.5M2093.57 2873.5 2093.57 2886.5M2291.5 2873.5 2291.5 2886.5" stroke="#D9D9D9" stroke-width="3.4375" stroke-linejoin="round" stroke-miterlimit="10" fill="none"/></g><g><path d="M215.5 1267.5 412.514 1427.55 610.52 1588.55 808.527 1749.56 1006.53 1909.56 1203.54 2070.57 1401.55 2230.57 1599.55 2391.58 1797.56 2552.58 1994.57 2712.59 2192.5 2873.5" stroke="#747474" stroke-width="4.58333" stroke-linecap="round" stroke-linejoin="round" stroke-miterlimit="10" stroke-dasharray="13.75 18.3333" fill="none"/></g><g><path d="M215 1267 413.014 1267 611.02 1359.04 808.026 1405.05 1006.03 1634.05 1204.04 1726.06 1402.05 2047.07 1599.05 2460.08 1797.06 2506.08 1995.07 2552.08 2193 2874" stroke="#E87331" stroke-width="10.3125" stroke-linecap="round" stroke-linejoin="round" stroke-miterlimit="10" fill="none"/></g><g><path d="M226.145 1267.35C226.145 1273.43 221.221 1278.35 215.146 1278.35 209.071 1278.35 204.146 1273.43 204.146 1267.35 204.146 1261.28 209.071 1256.35 215.146 1256.35 221.221 1256.35 226.145 1261.28 226.145 1267.35Z" stroke="#E87331" stroke-width="6.875" stroke-linejoin="round" stroke-miterlimit="10" fill="#E87331"/><path d="M423.145 1267.35C423.145 1273.43 418.221 1278.35 412.146 1278.35 406.071 1278.35 401.146 1273.43 401.146 1267.35 401.146 1261.28 406.071 1256.35 412.146 1256.35 418.221 1256.35 423.145 1261.28 423.145 1267.35Z" stroke="#E87331" stroke-width="6.875" stroke-linejoin="round" stroke-miterlimit="10" fill="#E87331"/><path d="M621.145 1359.35C621.145 1365.43 616.221 1370.35 610.146 1370.35 604.071 1370.35 599.146 1365.43 599.146 1359.35 599.146 1353.28 604.071 1348.35 610.146 1348.35 616.221 1348.35 621.145 1353.28 621.145 1359.35Z" stroke="#E87331" stroke-width="6.875" stroke-linejoin="round" stroke-miterlimit="10" fill="#E87331"/><path d="M819.145 1404.35C819.145 1410.43 814.221 1415.35 808.146 1415.35 802.071 1415.35 797.146 1410.43 797.146 1404.35 797.146 1398.28 802.071 1393.35 808.146 1393.35 814.221 1393.35 819.145 1398.28 819.145 1404.35Z" stroke="#E87331" stroke-width="6.875" stroke-linejoin="round" stroke-miterlimit="10" fill="#E87331"/><path d="M1017.15 1634.35C1017.15 1640.43 1012.22 1645.35 1006.15 1645.35 1000.07 1645.35 995.146 1640.43 995.146 1634.35 995.146 1628.28 1000.07 1623.35 1006.15 1623.35 1012.22 1623.35 1017.15 1628.28 1017.15 1634.35Z" stroke="#E87331" stroke-width="6.875" stroke-linejoin="round" stroke-miterlimit="10" fill="#E87331"/><path d="M1214.15 1726.35C1214.15 1732.43 1209.22 1737.35 1203.15 1737.35 1197.07 1737.35 1192.15 1732.43 1192.15 1726.35 1192.15 1720.28 1197.07 1715.35 1203.15 1715.35 1209.22 1715.35 1214.15 1720.28 1214.15 1726.35Z" stroke="#E87331" stroke-width="6.875" stroke-linejoin="round" stroke-miterlimit="10" fill="#E87331"/><path d="M1412.15 2047.35C1412.15 2053.43 1407.22 2058.35 1401.15 2058.35 1395.07 2058.35 1390.15 2053.43 1390.15 2047.35 1390.15 2041.28 1395.07 2036.35 1401.15 2036.35 1407.22 2036.35 1412.15 2041.28 1412.15 2047.35Z" stroke="#E87331" stroke-width="6.875" stroke-linejoin="round" stroke-miterlimit="10" fill="#E87331"/><path d="M1610.15 2460.35C1610.15 2466.43 1605.22 2471.35 1599.15 2471.35 1593.07 2471.35 1588.15 2466.43 1588.15 2460.35 1588.15 2454.28 1593.07 2449.35 1599.15 2449.35 1605.22 2449.35 1610.15 2454.28 1610.15 2460.35Z" stroke="#E87331" stroke-width="6.875" stroke-linejoin="round" stroke-miterlimit="10" fill="#E87331"/><path d="M1808.15 2506.35C1808.15 2512.43 1803.22 2517.35 1797.15 2517.35 1791.07 2517.35 1786.15 2512.43 1786.15 2506.35 1786.15 2500.28 1791.07 2495.35 1797.15 2495.35 1803.22 2495.35 1808.15 2500.28 1808.15 2506.35Z" stroke="#E87331" stroke-width="6.875" stroke-linejoin="round" stroke-miterlimit="10" fill="#E87331"/><path d="M2005.15 2552.35C2005.15 2558.43 2000.22 2563.35 1994.15 2563.35 1988.07 2563.35 1983.15 2558.43 1983.15 2552.35 1983.15 2546.28 1988.07 2541.35 1994.15 2541.35 2000.22 2541.35 2005.15 2546.28 2005.15 2552.35Z" stroke="#E87331" stroke-width="6.875" stroke-linejoin="round" stroke-miterlimit="10" fill="#E87331"/><path d="M2203.15 2873.35C2203.15 2879.43 2198.22 2884.35 2192.15 2884.35 2186.07 2884.35 2181.15 2879.43 2181.15 2873.35 2181.15 2867.28 2186.07 2862.35 2192.15 2862.35 2198.22 2862.35 2203.15 2867.28 2203.15 2873.35Z" stroke="#E87331" stroke-width="6.875" stroke-linejoin="round" stroke-miterlimit="10" fill="#E87331"/></g><g><text fill="#595959" font-family="Aptos Narrow,Aptos Narrow_MSFontService,sans-serif" font-weight="400" font-stretch="semi-condensed" font-size="41" transform="matrix(1 0 0 1 57.3375 2885)">0</text></g><g><text fill="#595959" font-family="Aptos Narrow,Aptos Narrow_MSFontService,sans-serif" font-weight="400" font-stretch="semi-condensed" font-size="41" transform="matrix(1 0 0 1 57.3375 2656)">5</text></g><g><text fill="#595959" font-family="Aptos Narrow,Aptos Narrow_MSFontService,sans-serif" font-weight="400" font-stretch="semi-condensed" font-size="41" transform="matrix(1 0 0 1 36.4375 2426)">10</text></g><g><text fill="#595959" font-family="Aptos Narrow,Aptos Narrow_MSFontService,sans-serif" font-weight="400" font-stretch="semi-condensed" font-size="41" transform="matrix(1 0 0 1 36.4375 2197)">15</text></g><g><text fill="#595959" font-family="Aptos Narrow,Aptos Narrow_MSFontService,sans-serif" font-weight="400" font-stretch="semi-condensed" font-size="41" transform="matrix(1 0 0 1 36.4375 1967)">20</text></g><g><text fill="#595959" font-family="Aptos Narrow,Aptos Narrow_MSFontService,sans-serif" font-weight="400" font-stretch="semi-condensed" font-size="41" transform="matrix(1 0 0 1 36.4375 1738)">25</text></g><g><text fill="#595959" font-family="Aptos Narrow,Aptos Narrow_MSFontService,sans-serif" font-weight="400" font-stretch="semi-condensed" font-size="41" transform="matrix(1 0 0 1 36.4375 1508)">30</text></g><g><text fill="#595959" font-family="Aptos Narrow,Aptos Narrow_MSFontService,sans-serif" font-weight="400" font-stretch="semi-condensed" font-size="41" transform="matrix(1 0 0 1 36.4375 1279)">35</text></g><g><text fill="#595959" font-family="Aptos Narrow,Aptos Narrow_MSFontService,sans-serif" font-weight="400" font-stretch="semi-condensed" font-size="41" transform="matrix(1 0 0 1 36.4375 1049)">40</text></g><g><text fill="#595959" font-family="Aptos Narrow,Aptos Narrow_MSFontService,sans-serif" font-weight="400" font-stretch="semi-condensed" font-size="41" transform="matrix(0.707107 -0.707107 0.707107 0.707107 91.579 3060)">20.03.2025</text></g><g><text fill="#595959" font-family="Aptos Narrow,Aptos Narrow_MSFontService,sans-serif" font-weight="400" font-stretch="semi-condensed" font-size="41" transform="matrix(0.707107 -0.707107 0.707107 0.707107 289.332 3060)">21.03.2025</text></g><g><text fill="#595959" font-family="Aptos Narrow,Aptos Narrow_MSFontService,sans-serif" font-weight="400" font-stretch="semi-condensed" font-size="41" transform="matrix(0.707107 -0.707107 0.707107 0.707107 487.085 3060)">22.03.2025</text></g><g><text fill="#595959" font-family="Aptos Narrow,Aptos Narrow_MSFontService,sans-serif" font-weight="400" font-stretch="semi-condensed" font-size="41" transform="matrix(0.707107 -0.707107 0.707107 0.707107 684.838 3060)">23.03.2025</text></g><g><text fill="#595959" font-family="Aptos Narrow,Aptos Narrow_MSFontService,sans-serif" font-weight="400" font-stretch="semi-condensed" font-size="41" transform="matrix(0.707107 -0.707107 0.707107 0.707107 882.591 3060)">24.03.2025</text></g><g><text fill="#595959" font-family="Aptos Narrow,Aptos Narrow_MSFontService,sans-serif" font-weight="400" font-stretch="semi-condensed" font-size="41" transform="matrix(0.707107 -0.707107 0.707107 0.707107 1080.34 3060)">25.03.2025</text></g><g><text fill="#595959" font-family="Aptos Narrow,Aptos Narrow_MSFontService,sans-serif" font-weight="400" font-stretch="semi-condensed" font-size="41" transform="matrix(0.707107 -0.707107 0.707107 0.707107 1278.1 3060)">26.03.2025</text></g><g><text fill="#595959" font-family="Aptos Narrow,Aptos Narrow_MSFontService,sans-serif" font-weight="400" font-stretch="semi-condensed" font-size="41" transform="matrix(0.707107 -0.707107 0.707107 0.707107 1475.85 3060)">27.03.2025</text></g><g><text fill="#595959" font-family="Aptos Narrow,Aptos Narrow_MSFontService,sans-serif" font-weight="400" font-stretch="semi-condensed" font-size="41" transform="matrix(0.707107 -0.707107 0.707107 0.707107 1673.6 3060)">28.03.2025</text></g><g><text fill="#595959" font-family="Aptos Narrow,Aptos Narrow_MSFontService,sans-serif" font-weight="400" font-stretch="semi-condensed" font-size="41" transform="matrix(0.707107 -0.707107 0.707107 0.707107 1871.36 3060)">29.03.2025</text></g><g><text fill="#595959" font-family="Aptos Narrow,Aptos Narrow_MSFontService,sans-serif" font-weight="400" font-stretch="semi-condensed" font-size="41" transform="matrix(0.707107 -0.707107 0.707107 0.707107 2069.11 3060)">30.03.2025</text></g><g><text fill="#595959" font-family="Aptos Narrow,Aptos Narrow_MSFontService,sans-serif" font-weight="400" font-stretch="semi-condensed" font-size="64" transform="matrix(1 0 0 1 842.488 962)">Burndown</text></g><g><text fill="#595959" font-family="Aptos Narrow,Aptos Narrow_MSFontService,sans-serif" font-weight="400" font-stretch="semi-condensed" font-size="64" transform="matrix(1 0 0 1 1102.75 962)">-</text></g><g><text fill="#595959" font-family="Aptos Narrow,Aptos Narrow_MSFontService,sans-serif" font-weight="400" font-stretch="semi-condensed" font-size="64" transform="matrix(1 0 0 1 1122.39 962)">Chart Sprint #1</text></g><g><path d="M692.5 3136.5 808.5 3136.5" stroke="#747474" stroke-width="4.58333" stroke-linecap="round" stroke-linejoin="round" stroke-miterlimit="10" stroke-dasharray="13.75 18.3333" fill="none" fill-rule="evenodd"/></g><g><text fill="#595959" font-family="Aptos Narrow,Aptos Narrow_MSFontService,sans-serif" font-weight="400" font-stretch="semi-condensed" font-size="41" transform="matrix(1 0 0 1 820.767 3148)">Optimum Desending</text></g><g><path d="M1238 3137 1353 3137" stroke="#E87331" stroke-width="10.3125" stroke-linecap="round" stroke-linejoin="round" stroke-miterlimit="10" fill="none" fill-rule="evenodd"/></g><g><path d="M1306 3136C1306 3142.07 1301.08 3147 1295 3147 1288.93 3147 1284 3142.07 1284 3136 1284 3129.92 1288.93 3125 1295 3125 1301.08 3125 1306 3129.92 1306 3136Z" stroke="#E87331" stroke-width="6.875" stroke-linejoin="round" stroke-miterlimit="10" fill="#E87331"/></g><g><text fill="#595959" font-family="Aptos Narrow,Aptos Narrow_MSFontService,sans-serif" font-weight="400" font-stretch="semi-condensed" font-size="41" transform="matrix(1 0 0 1 1366.22 3148)">Realität Desending</text></g><rect x="7.50007" y="868.5" width="2335" height="2335" stroke="#D9D9D9" stroke-width="3.4375" stroke-linejoin="round" stroke-miterlimit="10" fill="none"/></g></svg>