<svg width="2827" height="2342" xmlns="http://www.w3.org/2000/svg" xmlns:xlink="http://www.w3.org/1999/xlink" xml:space="preserve" overflow="hidden"><defs><clipPath id="clip0"><rect x="-3" y="1419" width="2827" height="2342"/></clipPath></defs><g clip-path="url(#clip0)" transform="translate(3 -1419)"><rect x="-2.00007" y="1420" width="2824" height="2339" fill="#FFFFFF"/><g><path d="M108.5 3123.6 2771.5 3123.6M108.5 2816.59 2771.5 2816.59M108.5 2509.58 2771.5 2509.58M108.5 2202.57 2771.5 2202.57M108.5 1896.56 2771.5 1896.56M108.5 1589.5 2771.5 1589.5" stroke="#D9D9D9" stroke-width="3.4375" stroke-linejoin="round" stroke-miterlimit="10" fill="none"/></g><g><path d="M108.5 3429.5 2771.5 3429.5" stroke="#D9D9D9" stroke-width="3.4375" stroke-linejoin="round" stroke-miterlimit="10" fill="none" fill-rule="evenodd"/></g><g><path d="M108.5 3429.5 108.5 3442.5M298.51 3429.5 298.51 3442.5M488.516 3429.5 488.516 3442.5M678.522 3429.5 678.522 3442.5M868.529 3429.5 868.529 3442.5M1059.53 3429.5 1059.53 3442.5M1249.54 3429.5 1249.54 3442.5M1439.55 3429.5 1439.55 3442.5M1629.55 3429.5 1629.55 3442.5M1820.56 3429.5 1820.56 3442.5M2010.57 3429.5 2010.57 3442.5M2200.57 3429.5 2200.57 3442.5M2390.58 3429.5 2390.58 3442.5M2581.58 3429.5 2581.58 3442.5M2771.5 3429.5 2771.5 3442.5" stroke="#D9D9D9" stroke-width="3.4375" stroke-linejoin="round" stroke-miterlimit="10" fill="none"/></g><g><path d="M203.5 1926.5 393.513 2042.57 583.519 2158.57 773.526 2273.57 964.532 2389.58 1154.54 2504.58 1344.54 2620.59 1534.55 2736.59 1725.56 2851.59 1915.56 2967.6 2105.57 3082.6 2295.58 3198.6 2485.58 3314.61 2676.5 3429.5" stroke="#747474" stroke-width="4.58333" stroke-linecap="round" stroke-linejoin="round" stroke-miterlimit="10" stroke-dasharray="13.75 18.3333" fill="none"/></g><g><path d="M203 1958 393.013 1958 584.019 1958 774.025 2080.07 964.032 2172.07 1154.04 2234.07 1345.04 2264.07 1535.05 2326.08 1725.06 2356.08 1915.06 2418.08 2105.07 2479.08 2296.08 2632.09 2486.08 2786.09 2676 3092" stroke="#E87331" stroke-width="10.3125" stroke-linecap="round" stroke-linejoin="round" stroke-miterlimit="10" fill="none"/></g><g><path d="M214.895 1957.07C214.895 1963.14 209.97 1968.07 203.896 1968.07 197.821 1968.07 192.896 1963.14 192.896 1957.07 192.896 1950.99 197.821 1946.07 203.896 1946.07 209.97 1946.07 214.895 1950.99 214.895 1957.07Z" stroke="#E87331" stroke-width="6.875" stroke-linejoin="round" stroke-miterlimit="10" fill="#E87331"/><path d="M404.895 1957.07C404.895 1963.14 399.971 1968.07 393.896 1968.07 387.821 1968.07 382.896 1963.14 382.896 1957.07 382.896 1950.99 387.821 1946.07 393.896 1946.07 399.971 1946.07 404.895 1950.99 404.895 1957.07Z" stroke="#E87331" stroke-width="6.875" stroke-linejoin="round" stroke-miterlimit="10" fill="#E87331"/><path d="M594.895 1957.07C594.895 1963.14 589.971 1968.07 583.896 1968.07 577.821 1968.07 572.896 1963.14 572.896 1957.07 572.896 1950.99 577.821 1946.07 583.896 1946.07 589.971 1946.07 594.895 1950.99 594.895 1957.07Z" stroke="#E87331" stroke-width="6.875" stroke-linejoin="round" stroke-miterlimit="10" fill="#E87331"/><path d="M784.895 2080.07C784.895 2086.14 779.97 2091.07 773.895 2091.07 767.821 2091.07 762.896 2086.14 762.896 2080.07 762.896 2073.99 767.821 2069.07 773.895 2069.07 779.97 2069.07 784.895 2073.99 784.895 2080.07Z" stroke="#E87331" stroke-width="6.875" stroke-linejoin="round" stroke-miterlimit="10" fill="#E87331"/><path d="M975.895 2172.07C975.895 2178.14 970.971 2183.07 964.896 2183.07 958.821 2183.07 953.896 2178.14 953.896 2172.07 953.896 2165.99 958.821 2161.07 964.896 2161.07 970.971 2161.07 975.895 2165.99 975.895 2172.07Z" stroke="#E87331" stroke-width="6.875" stroke-linejoin="round" stroke-miterlimit="10" fill="#E87331"/><path d="M1165.9 2233.07C1165.9 2239.14 1160.97 2244.07 1154.9 2244.07 1148.82 2244.07 1143.9 2239.14 1143.9 2233.07 1143.9 2226.99 1148.82 2222.07 1154.9 2222.07 1160.97 2222.07 1165.9 2226.99 1165.9 2233.07Z" stroke="#E87331" stroke-width="6.875" stroke-linejoin="round" stroke-miterlimit="10" fill="#E87331"/><path d="M1355.9 2264.07C1355.9 2270.14 1350.97 2275.07 1344.9 2275.07 1338.82 2275.07 1333.9 2270.14 1333.9 2264.07 1333.9 2257.99 1338.82 2253.07 1344.9 2253.07 1350.97 2253.07 1355.9 2257.99 1355.9 2264.07Z" stroke="#E87331" stroke-width="6.875" stroke-linejoin="round" stroke-miterlimit="10" fill="#E87331"/><path d="M1545.9 2325.07C1545.9 2331.14 1540.97 2336.07 1534.9 2336.07 1528.82 2336.07 1523.9 2331.14 1523.9 2325.07 1523.9 2318.99 1528.82 2314.07 1534.9 2314.07 1540.97 2314.07 1545.9 2318.99 1545.9 2325.07Z" stroke="#E87331" stroke-width="6.875" stroke-linejoin="round" stroke-miterlimit="10" fill="#E87331"/><path d="M1736.9 2356.07C1736.9 2362.14 1731.97 2367.07 1725.9 2367.07 1719.82 2367.07 1714.9 2362.14 1714.9 2356.07 1714.9 2349.99 1719.82 2345.07 1725.9 2345.07 1731.97 2345.07 1736.9 2349.99 1736.9 2356.07Z" stroke="#E87331" stroke-width="6.875" stroke-linejoin="round" stroke-miterlimit="10" fill="#E87331"/><path d="M1926.9 2417.07C1926.9 2423.14 1921.97 2428.07 1915.9 2428.07 1909.82 2428.07 1904.9 2423.14 1904.9 2417.07 1904.9 2410.99 1909.82 2406.07 1915.9 2406.07 1921.97 2406.07 1926.9 2410.99 1926.9 2417.07Z" stroke="#E87331" stroke-width="6.875" stroke-linejoin="round" stroke-miterlimit="10" fill="#E87331"/><path d="M2116.9 2479.07C2116.9 2485.14 2111.97 2490.07 2105.9 2490.07 2099.82 2490.07 2094.9 2485.14 2094.9 2479.07 2094.9 2472.99 2099.82 2468.07 2105.9 2468.07 2111.97 2468.07 2116.9 2472.99 2116.9 2479.07Z" stroke="#E87331" stroke-width="6.875" stroke-linejoin="round" stroke-miterlimit="10" fill="#E87331"/><path d="M2306.9 2632.07C2306.9 2638.14 2301.97 2643.07 2295.9 2643.07 2289.82 2643.07 2284.9 2638.14 2284.9 2632.07 2284.9 2625.99 2289.82 2621.07 2295.9 2621.07 2301.97 2621.07 2306.9 2625.99 2306.9 2632.07Z" stroke="#E87331" stroke-width="6.875" stroke-linejoin="round" stroke-miterlimit="10" fill="#E87331"/><path d="M2496.9 2785.07C2496.9 2791.14 2491.97 2796.07 2485.9 2796.07 2479.82 2796.07 2474.9 2791.14 2474.9 2785.07 2474.9 2778.99 2479.82 2774.07 2485.9 2774.07 2491.97 2774.07 2496.9 2778.99 2496.9 2785.07Z" stroke="#E87331" stroke-width="6.875" stroke-linejoin="round" stroke-miterlimit="10" fill="#E87331"/><path d="M2687.9 3092.07C2687.9 3098.14 2682.97 3103.07 2676.9 3103.07 2670.82 3103.07 2665.9 3098.14 2665.9 3092.07 2665.9 3085.99 2670.82 3081.07 2676.9 3081.07 2682.97 3081.07 2687.9 3085.99 2687.9 3092.07Z" stroke="#E87331" stroke-width="6.875" stroke-linejoin="round" stroke-miterlimit="10" fill="#E87331"/></g><g><text fill="#595959" font-family="Aptos Narrow,Aptos Narrow_MSFontService,sans-serif" font-weight="400" font-stretch="semi-condensed" font-size="41" transform="matrix(1 0 0 1 49.0875 3441)">0</text></g><g><text fill="#595959" font-family="Aptos Narrow,Aptos Narrow_MSFontService,sans-serif" font-weight="400" font-stretch="semi-condensed" font-size="41" transform="matrix(1 0 0 1 28.1875 3135)">10</text></g><g><text fill="#595959" font-family="Aptos Narrow,Aptos Narrow_MSFontService,sans-serif" font-weight="400" font-stretch="semi-condensed" font-size="41" transform="matrix(1 0 0 1 28.1875 2828)">20</text></g><g><text fill="#595959" font-family="Aptos Narrow,Aptos Narrow_MSFontService,sans-serif" font-weight="400" font-stretch="semi-condensed" font-size="41" transform="matrix(1 0 0 1 28.1875 2521)">30</text></g><g><text fill="#595959" font-family="Aptos Narrow,Aptos Narrow_MSFontService,sans-serif" font-weight="400" font-stretch="semi-condensed" font-size="41" transform="matrix(1 0 0 1 28.1875 2215)">40</text></g><g><text fill="#595959" font-family="Aptos Narrow,Aptos Narrow_MSFontService,sans-serif" font-weight="400" font-stretch="semi-condensed" font-size="41" transform="matrix(1 0 0 1 28.1875 1908)">50</text></g><g><text fill="#595959" font-family="Aptos Narrow,Aptos Narrow_MSFontService,sans-serif" font-weight="400" font-stretch="semi-condensed" font-size="41" transform="matrix(1 0 0 1 28.1875 1601)">60</text></g><g><text fill="#595959" font-family="Aptos Narrow,Aptos Narrow_MSFontService,sans-serif" font-weight="400" font-stretch="semi-condensed" font-size="41" transform="matrix(0.707107 -0.707107 0.707107 0.707107 79.5693 3617)">28.04.2025</text></g><g><text fill="#595959" font-family="Aptos Narrow,Aptos Narrow_MSFontService,sans-serif" font-weight="400" font-stretch="semi-condensed" font-size="41" transform="matrix(0.707107 -0.707107 0.707107 0.707107 269.803 3617)">29.04.2025</text></g><g><text fill="#595959" font-family="Aptos Narrow,Aptos Narrow_MSFontService,sans-serif" font-weight="400" font-stretch="semi-condensed" font-size="41" transform="matrix(0.707107 -0.707107 0.707107 0.707107 460.037 3617)">30.04.2025</text></g><g><text fill="#595959" font-family="Aptos Narrow,Aptos Narrow_MSFontService,sans-serif" font-weight="400" font-stretch="semi-condensed" font-size="41" transform="matrix(0.707107 -0.707107 0.707107 0.707107 650.271 3617)">01.05.2025</text></g><g><text fill="#595959" font-family="Aptos Narrow,Aptos Narrow_MSFontService,sans-serif" font-weight="400" font-stretch="semi-condensed" font-size="41" transform="matrix(0.707107 -0.707107 0.707107 0.707107 840.504 3617)">02.05.2025</text></g><g><text fill="#595959" font-family="Aptos Narrow,Aptos Narrow_MSFontService,sans-serif" font-weight="400" font-stretch="semi-condensed" font-size="41" transform="matrix(0.707107 -0.707107 0.707107 0.707107 1030.74 3617)">03.05.2025</text></g><g><text fill="#595959" font-family="Aptos Narrow,Aptos Narrow_MSFontService,sans-serif" font-weight="400" font-stretch="semi-condensed" font-size="41" transform="matrix(0.707107 -0.707107 0.707107 0.707107 1220.97 3617)">04.05.2025</text></g><g><text fill="#595959" font-family="Aptos Narrow,Aptos Narrow_MSFontService,sans-serif" font-weight="400" font-stretch="semi-condensed" font-size="41" transform="matrix(0.707107 -0.707107 0.707107 0.707107 1411.21 3617)">05.05.2025</text></g><g><text fill="#595959" font-family="Aptos Narrow,Aptos Narrow_MSFontService,sans-serif" font-weight="400" font-stretch="semi-condensed" font-size="41" transform="matrix(0.707107 -0.707107 0.707107 0.707107 1601.44 3617)">06.05.2025</text></g><g><text fill="#595959" font-family="Aptos Narrow,Aptos Narrow_MSFontService,sans-serif" font-weight="400" font-stretch="semi-condensed" font-size="41" transform="matrix(0.707107 -0.707107 0.707107 0.707107 1791.67 3617)">07.05.2025</text></g><g><text fill="#595959" font-family="Aptos Narrow,Aptos Narrow_MSFontService,sans-serif" font-weight="400" font-stretch="semi-condensed" font-size="41" transform="matrix(0.707107 -0.707107 0.707107 0.707107 1981.91 3617)">08.05.2025</text></g><g><text fill="#595959" font-family="Aptos Narrow,Aptos Narrow_MSFontService,sans-serif" font-weight="400" font-stretch="semi-condensed" font-size="41" transform="matrix(0.707107 -0.707107 0.707107 0.707107 2172.14 3617)">09.05.2025</text></g><g><text fill="#595959" font-family="Aptos Narrow,Aptos Narrow_MSFontService,sans-serif" font-weight="400" font-stretch="semi-condensed" font-size="41" transform="matrix(0.707107 -0.707107 0.707107 0.707107 2362.37 3617)">10.05.2025</text></g><g><text fill="#595959" font-family="Aptos Narrow,Aptos Narrow_MSFontService,sans-serif" font-weight="400" font-stretch="semi-condensed" font-size="41" transform="matrix(0.707107 -0.707107 0.707107 0.707107 2552.61 3617)">11.05.2025</text></g><g><text fill="#595959" font-family="Aptos Narrow,Aptos Narrow_MSFontService,sans-serif" font-weight="400" font-stretch="semi-condensed" font-size="64" transform="matrix(1 0 0 1 1078.23 1514)">Burndown</text></g><g><text fill="#595959" font-family="Aptos Narrow,Aptos Narrow_MSFontService,sans-serif" font-weight="400" font-stretch="semi-condensed" font-size="64" transform="matrix(1 0 0 1 1338.5 1514)">-</text></g><g><text fill="#595959" font-family="Aptos Narrow,Aptos Narrow_MSFontService,sans-serif" font-weight="400" font-stretch="semi-condensed" font-size="64" transform="matrix(1 0 0 1 1358.14 1514)">Chart Sprint #4</text></g><g><path d="M928.5 3693.5 1043.5 3693.5" stroke="#747474" stroke-width="4.58333" stroke-linecap="round" stroke-linejoin="round" stroke-miterlimit="10" stroke-dasharray="13.75 18.3333" fill="none" fill-rule="evenodd"/></g><g><text fill="#595959" font-family="Aptos Narrow,Aptos Narrow_MSFontService,sans-serif" font-weight="400" font-stretch="semi-condensed" font-size="41" transform="matrix(1 0 0 1 1056.51 3705)">Optimum Desending</text></g><g><path d="M1474 3693 1589 3693" stroke="#E87331" stroke-width="10.3125" stroke-linecap="round" stroke-linejoin="round" stroke-miterlimit="10" fill="none" fill-rule="evenodd"/></g><g><path d="M1542 3693C1542 3699.07 1537.07 3704 1531 3704 1524.92 3704 1520 3699.07 1520 3693 1520 3686.92 1524.92 3682 1531 3682 1537.07 3682 1542 3686.92 1542 3693Z" stroke="#E87331" stroke-width="6.875" stroke-linejoin="round" stroke-miterlimit="10" fill="#E87331"/></g><g><text fill="#595959" font-family="Aptos Narrow,Aptos Narrow_MSFontService,sans-serif" font-weight="400" font-stretch="semi-condensed" font-size="41" transform="matrix(1 0 0 1 1601.96 3705)">Realität Desending</text></g><rect x="-1.49987" y="1420.5" width="2824" height="2339" stroke="#D9D9D9" stroke-width="3.4375" stroke-linejoin="round" stroke-miterlimit="10" fill="none"/></g></svg>