<svg width="2827" height="2126" xmlns="http://www.w3.org/2000/svg" xmlns:xlink="http://www.w3.org/1999/xlink" xml:space="preserve" overflow="hidden"><defs><clipPath id="clip0"><rect x="-3" y="1611" width="2827" height="2126"/></clipPath></defs><g clip-path="url(#clip0)" transform="translate(3 -1611)"><rect x="-2.00007" y="1612" width="2824" height="2123" fill="#FFFFFF"/><g><path d="M108.5 3243.61 2771.5 3243.61M108.5 3080.6 2771.5 3080.6M108.5 2918.6 2771.5 2918.6M108.5 2756.59 2771.5 2756.59M108.5 2593.59 2771.5 2593.59M108.5 2431.58 2771.5 2431.58M108.5 2269.57 2771.5 2269.57M108.5 2106.57 2771.5 2106.57M108.5 1944.56 2771.5 1944.56M108.5 1782.5 2771.5 1782.5" stroke="#D9D9D9" stroke-width="3.4375" stroke-linejoin="round" stroke-miterlimit="10" fill="none"/></g><g><path d="M108.5 3405.5 2771.5 3405.5" stroke="#D9D9D9" stroke-width="3.4375" stroke-linejoin="round" stroke-miterlimit="10" fill="none" fill-rule="evenodd"/></g><g><path d="M108.5 3405.5 108.5 3418.5M298.51 3405.5 298.51 3418.5M488.516 3405.5 488.516 3418.5M678.522 3405.5 678.522 3418.5M868.529 3405.5 868.529 3418.5M1059.53 3405.5 1059.53 3418.5M1249.54 3405.5 1249.54 3418.5M1439.55 3405.5 1439.55 3418.5M1629.55 3405.5 1629.55 3418.5M1820.56 3405.5 1820.56 3418.5M2010.57 3405.5 2010.57 3418.5M2200.57 3405.5 2200.57 3418.5M2390.58 3405.5 2390.58 3418.5M2581.58 3405.5 2581.58 3418.5M2771.5 3405.5 2771.5 3418.5" stroke="#D9D9D9" stroke-width="3.4375" stroke-linejoin="round" stroke-miterlimit="10" fill="none"/></g><g><path d="M203.5 1944.5 393.513 2056.57 583.519 2169.57 773.526 2281.57 964.532 2394.58 1154.54 2506.58 1344.54 2618.59 1534.55 2731.59 1725.56 2843.59 1915.56 2956.6 2105.57 3068.6 2295.58 3180.6 2485.58 3293.61 2676.5 3405.5" stroke="#747474" stroke-width="4.58333" stroke-linecap="round" stroke-linejoin="round" stroke-miterlimit="10" stroke-dasharray="13.75 18.3333" fill="none"/></g><g><path d="M203 1977 393.013 2237.07 584.019 2432.08 774.025 2529.08 964.032 2626.09 1154.04 2691.09 1345.04 2691.09 1535.05 2691.09 1725.06 2691.09 1915.06 2724.09 2105.07 2724.09 2296.08 2821.09 2486.08 2886.09 2676 2984" stroke="#E87331" stroke-width="10.3125" stroke-linecap="round" stroke-linejoin="round" stroke-miterlimit="10" fill="none"/></g><g><path d="M214.895 1976.62C214.895 1982.69 209.97 1987.62 203.896 1987.62 197.821 1987.62 192.896 1982.69 192.896 1976.62 192.896 1970.54 197.821 1965.62 203.896 1965.62 209.97 1965.62 214.895 1970.54 214.895 1976.62Z" stroke="#E87331" stroke-width="6.875" stroke-linejoin="round" stroke-miterlimit="10" fill="#E87331"/><path d="M404.895 2236.62C404.895 2242.69 399.971 2247.62 393.896 2247.62 387.821 2247.62 382.896 2242.69 382.896 2236.62 382.896 2230.54 387.821 2225.62 393.896 2225.62 399.971 2225.62 404.895 2230.54 404.895 2236.62Z" stroke="#E87331" stroke-width="6.875" stroke-linejoin="round" stroke-miterlimit="10" fill="#E87331"/><path d="M594.895 2431.62C594.895 2437.69 589.971 2442.62 583.896 2442.62 577.821 2442.62 572.896 2437.69 572.896 2431.62 572.896 2425.54 577.821 2420.62 583.896 2420.62 589.971 2420.62 594.895 2425.54 594.895 2431.62Z" stroke="#E87331" stroke-width="6.875" stroke-linejoin="round" stroke-miterlimit="10" fill="#E87331"/><path d="M784.895 2529.62C784.895 2535.69 779.97 2540.62 773.895 2540.62 767.821 2540.62 762.896 2535.69 762.896 2529.62 762.896 2523.54 767.821 2518.62 773.895 2518.62 779.97 2518.62 784.895 2523.54 784.895 2529.62Z" stroke="#E87331" stroke-width="6.875" stroke-linejoin="round" stroke-miterlimit="10" fill="#E87331"/><path d="M975.895 2626.62C975.895 2632.69 970.971 2637.62 964.896 2637.62 958.821 2637.62 953.896 2632.69 953.896 2626.62 953.896 2620.54 958.821 2615.62 964.896 2615.62 970.971 2615.62 975.895 2620.54 975.895 2626.62Z" stroke="#E87331" stroke-width="6.875" stroke-linejoin="round" stroke-miterlimit="10" fill="#E87331"/><path d="M1165.9 2691.62C1165.9 2697.69 1160.97 2702.62 1154.9 2702.62 1148.82 2702.62 1143.9 2697.69 1143.9 2691.62 1143.9 2685.54 1148.82 2680.62 1154.9 2680.62 1160.97 2680.62 1165.9 2685.54 1165.9 2691.62Z" stroke="#E87331" stroke-width="6.875" stroke-linejoin="round" stroke-miterlimit="10" fill="#E87331"/><path d="M1355.9 2691.62C1355.9 2697.69 1350.97 2702.62 1344.9 2702.62 1338.82 2702.62 1333.9 2697.69 1333.9 2691.62 1333.9 2685.54 1338.82 2680.62 1344.9 2680.62 1350.97 2680.62 1355.9 2685.54 1355.9 2691.62Z" stroke="#E87331" stroke-width="6.875" stroke-linejoin="round" stroke-miterlimit="10" fill="#E87331"/><path d="M1545.9 2691.62C1545.9 2697.69 1540.97 2702.62 1534.9 2702.62 1528.82 2702.62 1523.9 2697.69 1523.9 2691.62 1523.9 2685.54 1528.82 2680.62 1534.9 2680.62 1540.97 2680.62 1545.9 2685.54 1545.9 2691.62Z" stroke="#E87331" stroke-width="6.875" stroke-linejoin="round" stroke-miterlimit="10" fill="#E87331"/><path d="M1736.9 2691.62C1736.9 2697.69 1731.97 2702.62 1725.9 2702.62 1719.82 2702.62 1714.9 2697.69 1714.9 2691.62 1714.9 2685.54 1719.82 2680.62 1725.9 2680.62 1731.97 2680.62 1736.9 2685.54 1736.9 2691.62Z" stroke="#E87331" stroke-width="6.875" stroke-linejoin="round" stroke-miterlimit="10" fill="#E87331"/><path d="M1926.9 2723.62C1926.9 2729.69 1921.97 2734.62 1915.9 2734.62 1909.82 2734.62 1904.9 2729.69 1904.9 2723.62 1904.9 2717.54 1909.82 2712.62 1915.9 2712.62 1921.97 2712.62 1926.9 2717.54 1926.9 2723.62Z" stroke="#E87331" stroke-width="6.875" stroke-linejoin="round" stroke-miterlimit="10" fill="#E87331"/><path d="M2116.9 2723.62C2116.9 2729.69 2111.97 2734.62 2105.9 2734.62 2099.82 2734.62 2094.9 2729.69 2094.9 2723.62 2094.9 2717.54 2099.82 2712.62 2105.9 2712.62 2111.97 2712.62 2116.9 2717.54 2116.9 2723.62Z" stroke="#E87331" stroke-width="6.875" stroke-linejoin="round" stroke-miterlimit="10" fill="#E87331"/><path d="M2306.9 2821.62C2306.9 2827.69 2301.97 2832.62 2295.9 2832.62 2289.82 2832.62 2284.9 2827.69 2284.9 2821.62 2284.9 2815.54 2289.82 2810.62 2295.9 2810.62 2301.97 2810.62 2306.9 2815.54 2306.9 2821.62Z" stroke="#E87331" stroke-width="6.875" stroke-linejoin="round" stroke-miterlimit="10" fill="#E87331"/><path d="M2496.9 2886.62C2496.9 2892.69 2491.97 2897.62 2485.9 2897.62 2479.82 2897.62 2474.9 2892.69 2474.9 2886.62 2474.9 2880.54 2479.82 2875.62 2485.9 2875.62 2491.97 2875.62 2496.9 2880.54 2496.9 2886.62Z" stroke="#E87331" stroke-width="6.875" stroke-linejoin="round" stroke-miterlimit="10" fill="#E87331"/><path d="M2687.9 2983.62C2687.9 2989.69 2682.97 2994.62 2676.9 2994.62 2670.82 2994.62 2665.9 2989.69 2665.9 2983.62 2665.9 2977.54 2670.82 2972.62 2676.9 2972.62 2682.97 2972.62 2687.9 2977.54 2687.9 2983.62Z" stroke="#E87331" stroke-width="6.875" stroke-linejoin="round" stroke-miterlimit="10" fill="#E87331"/></g><g><text fill="#595959" font-family="Aptos Narrow,Aptos Narrow_MSFontService,sans-serif" font-weight="400" font-stretch="semi-condensed" font-size="41" transform="matrix(1 0 0 1 49.0875 3417)">0</text></g><g><text fill="#595959" font-family="Aptos Narrow,Aptos Narrow_MSFontService,sans-serif" font-weight="400" font-stretch="semi-condensed" font-size="41" transform="matrix(1 0 0 1 49.0875 3255)">5</text></g><g><text fill="#595959" font-family="Aptos Narrow,Aptos Narrow_MSFontService,sans-serif" font-weight="400" font-stretch="semi-condensed" font-size="41" transform="matrix(1 0 0 1 28.1875 3093)">10</text></g><g><text fill="#595959" font-family="Aptos Narrow,Aptos Narrow_MSFontService,sans-serif" font-weight="400" font-stretch="semi-condensed" font-size="41" transform="matrix(1 0 0 1 28.1875 2930)">15</text></g><g><text fill="#595959" font-family="Aptos Narrow,Aptos Narrow_MSFontService,sans-serif" font-weight="400" font-stretch="semi-condensed" font-size="41" transform="matrix(1 0 0 1 28.1875 2768)">20</text></g><g><text fill="#595959" font-family="Aptos Narrow,Aptos Narrow_MSFontService,sans-serif" font-weight="400" font-stretch="semi-condensed" font-size="41" transform="matrix(1 0 0 1 28.1875 2605)">25</text></g><g><text fill="#595959" font-family="Aptos Narrow,Aptos Narrow_MSFontService,sans-serif" font-weight="400" font-stretch="semi-condensed" font-size="41" transform="matrix(1 0 0 1 28.1875 2443)">30</text></g><g><text fill="#595959" font-family="Aptos Narrow,Aptos Narrow_MSFontService,sans-serif" font-weight="400" font-stretch="semi-condensed" font-size="41" transform="matrix(1 0 0 1 28.1875 2281)">35</text></g><g><text fill="#595959" font-family="Aptos Narrow,Aptos Narrow_MSFontService,sans-serif" font-weight="400" font-stretch="semi-condensed" font-size="41" transform="matrix(1 0 0 1 28.1875 2118)">40</text></g><g><text fill="#595959" font-family="Aptos Narrow,Aptos Narrow_MSFontService,sans-serif" font-weight="400" font-stretch="semi-condensed" font-size="41" transform="matrix(1 0 0 1 28.1875 1956)">45</text></g><g><text fill="#595959" font-family="Aptos Narrow,Aptos Narrow_MSFontService,sans-serif" font-weight="400" font-stretch="semi-condensed" font-size="41" transform="matrix(1 0 0 1 28.1875 1794)">50</text></g><g><text fill="#595959" font-family="Aptos Narrow,Aptos Narrow_MSFontService,sans-serif" font-weight="400" font-stretch="semi-condensed" font-size="41" transform="matrix(0.707107 -0.707107 0.707107 0.707107 79.5692 3593)">12.05.2025</text></g><g><text fill="#595959" font-family="Aptos Narrow,Aptos Narrow_MSFontService,sans-serif" font-weight="400" font-stretch="semi-condensed" font-size="41" transform="matrix(0.707107 -0.707107 0.707107 0.707107 269.803 3593)">13.05.2025</text></g><g><text fill="#595959" font-family="Aptos Narrow,Aptos Narrow_MSFontService,sans-serif" font-weight="400" font-stretch="semi-condensed" font-size="41" transform="matrix(0.707107 -0.707107 0.707107 0.707107 460.037 3593)">14.05.2025</text></g><g><text fill="#595959" font-family="Aptos Narrow,Aptos Narrow_MSFontService,sans-serif" font-weight="400" font-stretch="semi-condensed" font-size="41" transform="matrix(0.707107 -0.707107 0.707107 0.707107 650.271 3593)">15.05.2025</text></g><g><text fill="#595959" font-family="Aptos Narrow,Aptos Narrow_MSFontService,sans-serif" font-weight="400" font-stretch="semi-condensed" font-size="41" transform="matrix(0.707107 -0.707107 0.707107 0.707107 840.504 3593)">16.05.2025</text></g><g><text fill="#595959" font-family="Aptos Narrow,Aptos Narrow_MSFontService,sans-serif" font-weight="400" font-stretch="semi-condensed" font-size="41" transform="matrix(0.707107 -0.707107 0.707107 0.707107 1030.74 3593)">17.05.2025</text></g><g><text fill="#595959" font-family="Aptos Narrow,Aptos Narrow_MSFontService,sans-serif" font-weight="400" font-stretch="semi-condensed" font-size="41" transform="matrix(0.707107 -0.707107 0.707107 0.707107 1220.97 3593)">18.05.2025</text></g><g><text fill="#595959" font-family="Aptos Narrow,Aptos Narrow_MSFontService,sans-serif" font-weight="400" font-stretch="semi-condensed" font-size="41" transform="matrix(0.707107 -0.707107 0.707107 0.707107 1411.21 3593)">19.05.2025</text></g><g><text fill="#595959" font-family="Aptos Narrow,Aptos Narrow_MSFontService,sans-serif" font-weight="400" font-stretch="semi-condensed" font-size="41" transform="matrix(0.707107 -0.707107 0.707107 0.707107 1601.44 3593)">20.05.2025</text></g><g><text fill="#595959" font-family="Aptos Narrow,Aptos Narrow_MSFontService,sans-serif" font-weight="400" font-stretch="semi-condensed" font-size="41" transform="matrix(0.707107 -0.707107 0.707107 0.707107 1791.67 3593)">21.05.2025</text></g><g><text fill="#595959" font-family="Aptos Narrow,Aptos Narrow_MSFontService,sans-serif" font-weight="400" font-stretch="semi-condensed" font-size="41" transform="matrix(0.707107 -0.707107 0.707107 0.707107 1981.91 3593)">22.05.2025</text></g><g><text fill="#595959" font-family="Aptos Narrow,Aptos Narrow_MSFontService,sans-serif" font-weight="400" font-stretch="semi-condensed" font-size="41" transform="matrix(0.707107 -0.707107 0.707107 0.707107 2172.14 3593)">23.05.2025</text></g><g><text fill="#595959" font-family="Aptos Narrow,Aptos Narrow_MSFontService,sans-serif" font-weight="400" font-stretch="semi-condensed" font-size="41" transform="matrix(0.707107 -0.707107 0.707107 0.707107 2362.37 3593)">24.05.2025</text></g><g><text fill="#595959" font-family="Aptos Narrow,Aptos Narrow_MSFontService,sans-serif" font-weight="400" font-stretch="semi-condensed" font-size="41" transform="matrix(0.707107 -0.707107 0.707107 0.707107 2552.61 3593)">25.05.2025</text></g><g><text fill="#595959" font-family="Aptos Narrow,Aptos Narrow_MSFontService,sans-serif" font-weight="400" font-stretch="semi-condensed" font-size="64" transform="matrix(1 0 0 1 1078.23 1706)">Burndown</text></g><g><text fill="#595959" font-family="Aptos Narrow,Aptos Narrow_MSFontService,sans-serif" font-weight="400" font-stretch="semi-condensed" font-size="64" transform="matrix(1 0 0 1 1338.5 1706)">-</text></g><g><text fill="#595959" font-family="Aptos Narrow,Aptos Narrow_MSFontService,sans-serif" font-weight="400" font-stretch="semi-condensed" font-size="64" transform="matrix(1 0 0 1 1358.14 1706)">Chart Sprint #5</text></g><g><path d="M928.5 3669.5 1043.5 3669.5" stroke="#747474" stroke-width="4.58333" stroke-linecap="round" stroke-linejoin="round" stroke-miterlimit="10" stroke-dasharray="13.75 18.3333" fill="none" fill-rule="evenodd"/></g><g><text fill="#595959" font-family="Aptos Narrow,Aptos Narrow_MSFontService,sans-serif" font-weight="400" font-stretch="semi-condensed" font-size="41" transform="matrix(1 0 0 1 1056.51 3681)">Optimum Desending</text></g><g><path d="M1474 3669 1589 3669" stroke="#E87331" stroke-width="10.3125" stroke-linecap="round" stroke-linejoin="round" stroke-miterlimit="10" fill="none" fill-rule="evenodd"/></g><g><path d="M1542 3669C1542 3675.07 1537.07 3680 1531 3680 1524.92 3680 1520 3675.07 1520 3669 1520 3662.92 1524.92 3658 1531 3658 1537.07 3658 1542 3662.92 1542 3669Z" stroke="#E87331" stroke-width="6.875" stroke-linejoin="round" stroke-miterlimit="10" fill="#E87331"/></g><g><text fill="#595959" font-family="Aptos Narrow,Aptos Narrow_MSFontService,sans-serif" font-weight="400" font-stretch="semi-condensed" font-size="41" transform="matrix(1 0 0 1 1601.96 3681)">Realität Desending</text></g><rect x="-1.49987" y="1612.5" width="2824" height="2123" stroke="#D9D9D9" stroke-width="3.4375" stroke-linejoin="round" stroke-miterlimit="10" fill="none"/></g></svg>