<svg width="2444" height="2342" xmlns="http://www.w3.org/2000/svg" xmlns:xlink="http://www.w3.org/1999/xlink" xml:space="preserve" overflow="hidden"><defs><clipPath id="clip0"><rect x="-3" y="1419" width="2444" height="2342"/></clipPath></defs><g clip-path="url(#clip0)" transform="translate(3 -1419)"><rect x="-2.00007" y="1420" width="2441" height="2339" fill="#FFFFFF"/><g><path d="M108.5 3245.61 2388.5 3245.61M108.5 3061.6 2388.5 3061.6M108.5 2877.59 2388.5 2877.59M108.5 2693.59 2388.5 2693.59M108.5 2509.58 2388.5 2509.58M108.5 2325.58 2388.5 2325.58M108.5 2141.57 2388.5 2141.57M108.5 1957.56 2388.5 1957.56M108.5 1773.56 2388.5 1773.56M108.5 1589.5 2388.5 1589.5" stroke="#D9D9D9" stroke-width="3.4375" stroke-linejoin="round" stroke-miterlimit="10" fill="none"/></g><g><path d="M108.5 3429.5 2388.5 3429.5" stroke="#D9D9D9" stroke-width="3.4375" stroke-linejoin="round" stroke-miterlimit="10" fill="none" fill-rule="evenodd"/></g><g><path d="M108.5 3429.5 108.5 3442.5M270.509 3429.5 270.509 3442.5M433.514 3429.5 433.514 3442.5M596.52 3429.5 596.52 3442.5M759.525 3429.5 759.525 3442.5M922.53 3429.5 922.53 3442.5M1085.54 3429.5 1085.54 3442.5M1248.54 3429.5 1248.54 3442.5M1411.55 3429.5 1411.55 3442.5M1574.55 3429.5 1574.55 3442.5M1736.56 3429.5 1736.56 3442.5M1899.56 3429.5 1899.56 3442.5M2062.57 3429.5 2062.57 3442.5M2225.57 3429.5 2225.57 3442.5M2388.5 3429.5 2388.5 3442.5" stroke="#D9D9D9" stroke-width="3.4375" stroke-linejoin="round" stroke-miterlimit="10" fill="none"/></g><g><path d="M189.5 1663.5 352.512 1799.56 515.517 1934.56 678.522 2070.57 841.528 2206.57 1003.53 2342.58 1166.54 2478.58 1329.54 2614.59 1492.55 2750.59 1655.55 2886.59 1818.56 3022.6 1981.57 3157.6 2144.57 3293.61 2307.5 3429.5" stroke="#747474" stroke-width="4.58333" stroke-linecap="round" stroke-linejoin="round" stroke-miterlimit="10" stroke-dasharray="13.75 18.3333" fill="none"/></g><g><path d="M190 1663 352.012 1737.06 515.017 1810.06 678.022 1847.06 841.028 1884.06 1004.03 1884.06 1167.04 2215.07 1330.04 2289.08 1493.05 2399.08 1655.05 2473.08 1818.06 2583.08 1981.07 2583.08 2144.07 2730.09 2307 2988" stroke="#E87331" stroke-width="10.3125" stroke-linecap="round" stroke-linejoin="round" stroke-miterlimit="10" fill="none"/></g><g><path d="M200.895 1663.07C200.895 1669.14 195.97 1674.07 189.895 1674.07 183.82 1674.07 178.896 1669.14 178.896 1663.07 178.896 1656.99 183.82 1652.07 189.895 1652.07 195.97 1652.07 200.895 1656.99 200.895 1663.07Z" stroke="#E87331" stroke-width="6.875" stroke-linejoin="round" stroke-miterlimit="10" fill="#E87331"/><path d="M363.895 1736.07C363.895 1742.14 358.971 1747.07 352.896 1747.07 346.821 1747.07 341.896 1742.14 341.896 1736.07 341.896 1729.99 346.821 1725.07 352.896 1725.07 358.971 1725.07 363.895 1729.99 363.895 1736.07Z" stroke="#E87331" stroke-width="6.875" stroke-linejoin="round" stroke-miterlimit="10" fill="#E87331"/><path d="M526.895 1810.07C526.895 1816.14 521.971 1821.07 515.896 1821.07 509.821 1821.07 504.896 1816.14 504.896 1810.07 504.896 1803.99 509.821 1799.07 515.896 1799.07 521.971 1799.07 526.895 1803.99 526.895 1810.07Z" stroke="#E87331" stroke-width="6.875" stroke-linejoin="round" stroke-miterlimit="10" fill="#E87331"/><path d="M689.895 1847.07C689.895 1853.14 684.971 1858.07 678.896 1858.07 672.821 1858.07 667.896 1853.14 667.896 1847.07 667.896 1840.99 672.821 1836.07 678.896 1836.07 684.971 1836.07 689.895 1840.99 689.895 1847.07Z" stroke="#E87331" stroke-width="6.875" stroke-linejoin="round" stroke-miterlimit="10" fill="#E87331"/><path d="M852.895 1884.07C852.895 1890.14 847.97 1895.07 841.896 1895.07 835.821 1895.07 830.896 1890.14 830.896 1884.07 830.896 1877.99 835.821 1873.07 841.896 1873.07 847.97 1873.07 852.895 1877.99 852.895 1884.07Z" stroke="#E87331" stroke-width="6.875" stroke-linejoin="round" stroke-miterlimit="10" fill="#E87331"/><path d="M1014.9 1884.07C1014.9 1890.14 1009.97 1895.07 1003.9 1895.07 997.821 1895.07 992.896 1890.14 992.896 1884.07 992.896 1877.99 997.821 1873.07 1003.9 1873.07 1009.97 1873.07 1014.9 1877.99 1014.9 1884.07Z" stroke="#E87331" stroke-width="6.875" stroke-linejoin="round" stroke-miterlimit="10" fill="#E87331"/><path d="M1177.9 2215.07C1177.9 2221.14 1172.97 2226.07 1166.9 2226.07 1160.82 2226.07 1155.9 2221.14 1155.9 2215.07 1155.9 2208.99 1160.82 2204.07 1166.9 2204.07 1172.97 2204.07 1177.9 2208.99 1177.9 2215.07Z" stroke="#E87331" stroke-width="6.875" stroke-linejoin="round" stroke-miterlimit="10" fill="#E87331"/><path d="M1340.9 2288.07C1340.9 2294.14 1335.97 2299.07 1329.9 2299.07 1323.82 2299.07 1318.9 2294.14 1318.9 2288.07 1318.9 2281.99 1323.82 2277.07 1329.9 2277.07 1335.97 2277.07 1340.9 2281.99 1340.9 2288.07Z" stroke="#E87331" stroke-width="6.875" stroke-linejoin="round" stroke-miterlimit="10" fill="#E87331"/><path d="M1503.9 2399.07C1503.9 2405.14 1498.97 2410.07 1492.9 2410.07 1486.82 2410.07 1481.9 2405.14 1481.9 2399.07 1481.9 2392.99 1486.82 2388.07 1492.9 2388.07 1498.97 2388.07 1503.9 2392.99 1503.9 2399.07Z" stroke="#E87331" stroke-width="6.875" stroke-linejoin="round" stroke-miterlimit="10" fill="#E87331"/><path d="M1666.9 2472.07C1666.9 2478.14 1661.97 2483.07 1655.9 2483.07 1649.82 2483.07 1644.9 2478.14 1644.9 2472.07 1644.9 2465.99 1649.82 2461.07 1655.9 2461.07 1661.97 2461.07 1666.9 2465.99 1666.9 2472.07Z" stroke="#E87331" stroke-width="6.875" stroke-linejoin="round" stroke-miterlimit="10" fill="#E87331"/><path d="M1829.9 2583.07C1829.9 2589.14 1824.97 2594.07 1818.9 2594.07 1812.82 2594.07 1807.9 2589.14 1807.9 2583.07 1807.9 2576.99 1812.82 2572.07 1818.9 2572.07 1824.97 2572.07 1829.9 2576.99 1829.9 2583.07Z" stroke="#E87331" stroke-width="6.875" stroke-linejoin="round" stroke-miterlimit="10" fill="#E87331"/><path d="M1992.9 2583.07C1992.9 2589.14 1987.97 2594.07 1981.9 2594.07 1975.82 2594.07 1970.9 2589.14 1970.9 2583.07 1970.9 2576.99 1975.82 2572.07 1981.9 2572.07 1987.97 2572.07 1992.9 2576.99 1992.9 2583.07Z" stroke="#E87331" stroke-width="6.875" stroke-linejoin="round" stroke-miterlimit="10" fill="#E87331"/><path d="M2155.9 2730.07C2155.9 2736.14 2150.97 2741.07 2144.9 2741.07 2138.82 2741.07 2133.9 2736.14 2133.9 2730.07 2133.9 2723.99 2138.82 2719.07 2144.9 2719.07 2150.97 2719.07 2155.9 2723.99 2155.9 2730.07Z" stroke="#E87331" stroke-width="6.875" stroke-linejoin="round" stroke-miterlimit="10" fill="#E87331"/><path d="M2318.9 2988.07C2318.9 2994.14 2313.97 2999.07 2307.9 2999.07 2301.82 2999.07 2296.9 2994.14 2296.9 2988.07 2296.9 2981.99 2301.82 2977.07 2307.9 2977.07 2313.97 2977.07 2318.9 2981.99 2318.9 2988.07Z" stroke="#E87331" stroke-width="6.875" stroke-linejoin="round" stroke-miterlimit="10" fill="#E87331"/></g><g><text fill="#595959" font-family="Aptos Narrow,Aptos Narrow_MSFontService,sans-serif" font-weight="400" font-stretch="semi-condensed" font-size="41" transform="matrix(1 0 0 1 49.0875 3441)">0</text></g><g><text fill="#595959" font-family="Aptos Narrow,Aptos Narrow_MSFontService,sans-serif" font-weight="400" font-stretch="semi-condensed" font-size="41" transform="matrix(1 0 0 1 49.0875 3257)">5</text></g><g><text fill="#595959" font-family="Aptos Narrow,Aptos Narrow_MSFontService,sans-serif" font-weight="400" font-stretch="semi-condensed" font-size="41" transform="matrix(1 0 0 1 28.1875 3073)">10</text></g><g><text fill="#595959" font-family="Aptos Narrow,Aptos Narrow_MSFontService,sans-serif" font-weight="400" font-stretch="semi-condensed" font-size="41" transform="matrix(1 0 0 1 28.1875 2889)">15</text></g><g><text fill="#595959" font-family="Aptos Narrow,Aptos Narrow_MSFontService,sans-serif" font-weight="400" font-stretch="semi-condensed" font-size="41" transform="matrix(1 0 0 1 28.1875 2705)">20</text></g><g><text fill="#595959" font-family="Aptos Narrow,Aptos Narrow_MSFontService,sans-serif" font-weight="400" font-stretch="semi-condensed" font-size="41" transform="matrix(1 0 0 1 28.1875 2521)">25</text></g><g><text fill="#595959" font-family="Aptos Narrow,Aptos Narrow_MSFontService,sans-serif" font-weight="400" font-stretch="semi-condensed" font-size="41" transform="matrix(1 0 0 1 28.1875 2337)">30</text></g><g><text fill="#595959" font-family="Aptos Narrow,Aptos Narrow_MSFontService,sans-serif" font-weight="400" font-stretch="semi-condensed" font-size="41" transform="matrix(1 0 0 1 28.1875 2153)">35</text></g><g><text fill="#595959" font-family="Aptos Narrow,Aptos Narrow_MSFontService,sans-serif" font-weight="400" font-stretch="semi-condensed" font-size="41" transform="matrix(1 0 0 1 28.1875 1969)">40</text></g><g><text fill="#595959" font-family="Aptos Narrow,Aptos Narrow_MSFontService,sans-serif" font-weight="400" font-stretch="semi-condensed" font-size="41" transform="matrix(1 0 0 1 28.1875 1785)">45</text></g><g><text fill="#595959" font-family="Aptos Narrow,Aptos Narrow_MSFontService,sans-serif" font-weight="400" font-stretch="semi-condensed" font-size="41" transform="matrix(1 0 0 1 28.1875 1601)">50</text></g><g><text fill="#595959" font-family="Aptos Narrow,Aptos Narrow_MSFontService,sans-serif" font-weight="400" font-stretch="semi-condensed" font-size="41" transform="matrix(0.707107 -0.707107 0.707107 0.707107 65.8965 3617)">14.04.2025</text></g><g><text fill="#595959" font-family="Aptos Narrow,Aptos Narrow_MSFontService,sans-serif" font-weight="400" font-stretch="semi-condensed" font-size="41" transform="matrix(0.707107 -0.707107 0.707107 0.707107 228.784 3617)">15.04.2025</text></g><g><text fill="#595959" font-family="Aptos Narrow,Aptos Narrow_MSFontService,sans-serif" font-weight="400" font-stretch="semi-condensed" font-size="41" transform="matrix(0.707107 -0.707107 0.707107 0.707107 391.672 3617)">16.04.2025</text></g><g><text fill="#595959" font-family="Aptos Narrow,Aptos Narrow_MSFontService,sans-serif" font-weight="400" font-stretch="semi-condensed" font-size="41" transform="matrix(0.707107 -0.707107 0.707107 0.707107 554.56 3617)">17.04.2025</text></g><g><text fill="#595959" font-family="Aptos Narrow,Aptos Narrow_MSFontService,sans-serif" font-weight="400" font-stretch="semi-condensed" font-size="41" transform="matrix(0.707107 -0.707107 0.707107 0.707107 717.448 3617)">18.04.2025</text></g><g><text fill="#595959" font-family="Aptos Narrow,Aptos Narrow_MSFontService,sans-serif" font-weight="400" font-stretch="semi-condensed" font-size="41" transform="matrix(0.707107 -0.707107 0.707107 0.707107 880.335 3617)">19.04.2025</text></g><g><text fill="#595959" font-family="Aptos Narrow,Aptos Narrow_MSFontService,sans-serif" font-weight="400" font-stretch="semi-condensed" font-size="41" transform="matrix(0.707107 -0.707107 0.707107 0.707107 1043.22 3617)">20.04.2025</text></g><g><text fill="#595959" font-family="Aptos Narrow,Aptos Narrow_MSFontService,sans-serif" font-weight="400" font-stretch="semi-condensed" font-size="41" transform="matrix(0.707107 -0.707107 0.707107 0.707107 1206.11 3617)">21.04.2025</text></g><g><text fill="#595959" font-family="Aptos Narrow,Aptos Narrow_MSFontService,sans-serif" font-weight="400" font-stretch="semi-condensed" font-size="41" transform="matrix(0.707107 -0.707107 0.707107 0.707107 1369 3617)">22.04.2025</text></g><g><text fill="#595959" font-family="Aptos Narrow,Aptos Narrow_MSFontService,sans-serif" font-weight="400" font-stretch="semi-condensed" font-size="41" transform="matrix(0.707107 -0.707107 0.707107 0.707107 1531.89 3617)">23.04.2025</text></g><g><text fill="#595959" font-family="Aptos Narrow,Aptos Narrow_MSFontService,sans-serif" font-weight="400" font-stretch="semi-condensed" font-size="41" transform="matrix(0.707107 -0.707107 0.707107 0.707107 1694.77 3617)">24.04.2025</text></g><g><text fill="#595959" font-family="Aptos Narrow,Aptos Narrow_MSFontService,sans-serif" font-weight="400" font-stretch="semi-condensed" font-size="41" transform="matrix(0.707107 -0.707107 0.707107 0.707107 1857.66 3617)">25.04.2025</text></g><g><text fill="#595959" font-family="Aptos Narrow,Aptos Narrow_MSFontService,sans-serif" font-weight="400" font-stretch="semi-condensed" font-size="41" transform="matrix(0.707107 -0.707107 0.707107 0.707107 2020.55 3617)">26.04.2025</text></g><g><text fill="#595959" font-family="Aptos Narrow,Aptos Narrow_MSFontService,sans-serif" font-weight="400" font-stretch="semi-condensed" font-size="41" transform="matrix(0.707107 -0.707107 0.707107 0.707107 2183.44 3617)">27.04.2025</text></g><g><text fill="#595959" font-family="Aptos Narrow,Aptos Narrow_MSFontService,sans-serif" font-weight="400" font-stretch="semi-condensed" font-size="64" transform="matrix(1 0 0 1 886.812 1514)">Burndown</text></g><g><text fill="#595959" font-family="Aptos Narrow,Aptos Narrow_MSFontService,sans-serif" font-weight="400" font-stretch="semi-condensed" font-size="64" transform="matrix(1 0 0 1 1147.08 1514)">-</text></g><g><text fill="#595959" font-family="Aptos Narrow,Aptos Narrow_MSFontService,sans-serif" font-weight="400" font-stretch="semi-condensed" font-size="64" transform="matrix(1 0 0 1 1166.72 1514)">Chart Sprint #3</text></g><g><path d="M736.5 3693.5 852.5 3693.5" stroke="#747474" stroke-width="4.58333" stroke-linecap="round" stroke-linejoin="round" stroke-miterlimit="10" stroke-dasharray="13.75 18.3333" fill="none" fill-rule="evenodd"/></g><g><text fill="#595959" font-family="Aptos Narrow,Aptos Narrow_MSFontService,sans-serif" font-weight="400" font-stretch="semi-condensed" font-size="41" transform="matrix(1 0 0 1 865.091 3705)">Optimum Desending</text></g><g><path d="M1282 3693 1398 3693" stroke="#E87331" stroke-width="10.3125" stroke-linecap="round" stroke-linejoin="round" stroke-miterlimit="10" fill="none" fill-rule="evenodd"/></g><g><path d="M1351 3693C1351 3699.07 1346.08 3704 1340 3704 1333.93 3704 1329 3699.07 1329 3693 1329 3686.92 1333.93 3682 1340 3682 1346.08 3682 1351 3686.92 1351 3693Z" stroke="#E87331" stroke-width="6.875" stroke-linejoin="round" stroke-miterlimit="10" fill="#E87331"/></g><g><text fill="#595959" font-family="Aptos Narrow,Aptos Narrow_MSFontService,sans-serif" font-weight="400" font-stretch="semi-condensed" font-size="41" transform="matrix(1 0 0 1 1410.54 3705)">Realität Desending</text></g><rect x="-1.49987" y="1420.5" width="2441" height="2339" stroke="#D9D9D9" stroke-width="3.4375" stroke-linejoin="round" stroke-miterlimit="10" fill="none"/></g></svg>