<svg xmlns="http://www.w3.org/2000/svg" xmlns:xlink="http://www.w3.org/1999/xlink" contentStyleType="text/css" data-diagram-type="STATE" height="525px" preserveAspectRatio="none" style="width:2152px;height:525px;background:#FFFFFF;" version="1.1" viewBox="0 0 2152 525" width="2152px" zoomAndPan="magnify"><title>State Diagramm, Stand: 09.05.2025 (develop)</title><defs/><g><text fill="#000000" font-family="sans-serif" font-size="14" font-weight="bold" lengthAdjust="spacing" textLength="364.3896" x="886.8052" y="22.9951">State Diagramm, Stand: 09.05.2025 (develop)</text><!--cluster game--><g id="cluster_game"><path d="M1233.5,402.2969 L2086.5,402.2969 A12.5,12.5 0 0 1 2099,414.7969 L2099,423.5938 L1221,423.5938 L1221,414.7969 A12.5,12.5 0 0 1 1233.5,402.2969 " fill="#F1F1F1" style="stroke:#F1F1F1;stroke-width:1;"/><rect fill="transparent" height="117" rx="12.5" ry="12.5" style="stroke:#181818;stroke-width:0.5;" width="878" x="1221" y="402.2969"/><line style="stroke:#181818;stroke-width:0.5;" x1="1221" x2="2099" y1="423.5938" y2="423.5938"/><text fill="#000000" font-family="sans-serif" font-size="14" lengthAdjust="spacing" textLength="39.7168" x="1640.1416" y="419.292">game</text></g><!--cluster menu--><g id="cluster_menu"><path d="M19.5,44.2969 L1168.5,44.2969 A12.5,12.5 0 0 1 1181,56.7969 L1181,65.5938 L7,65.5938 L7,56.7969 A12.5,12.5 0 0 1 19.5,44.2969 " fill="#F1F1F1" style="stroke:#F1F1F1;stroke-width:1;"/><rect fill="transparent" height="475" rx="12.5" ry="12.5" style="stroke:#181818;stroke-width:0.5;" width="1174" x="7" y="44.2969"/><line style="stroke:#181818;stroke-width:0.5;" x1="7" x2="1181" y1="65.5938" y2="65.5938"/><text fill="#000000" font-family="sans-serif" font-size="14" lengthAdjust="spacing" textLength="39.9971" x="574.0015" y="61.292">menu</text></g><g id="game.MAIN_MENU"><rect fill="#F1F1F1" height="50" rx="12.5" ry="12.5" style="stroke:#181818;stroke-width:0.5;" width="104.9023" x="1950.5" y="445.2969"/><line style="stroke:#181818;stroke-width:0.5;" x1="1950.5" x2="2055.4023" y1="471.5938" y2="471.5938"/><text fill="#000000" font-family="sans-serif" font-size="14" lengthAdjust="spacing" textLength="84.9023" x="1960.5" y="463.292">MAIN_MENU</text></g><g id="game.MAP_MODE"><rect fill="#F1F1F1" height="50" rx="12.5" ry="12.5" style="stroke:#181818;stroke-width:0.5;" width="99.8232" x="1815" y="445.2969"/><line style="stroke:#181818;stroke-width:0.5;" x1="1815" x2="1914.8232" y1="471.5938" y2="471.5938"/><text fill="#000000" font-family="sans-serif" font-size="14" lengthAdjust="spacing" textLength="79.8232" x="1825" y="463.292">MAP_MODE</text></g><g id="game.COMBAT_MODE"><rect fill="#F1F1F1" height="50" rx="12.5" ry="12.5" style="stroke:#181818;stroke-width:0.5;" width="130.332" x="1650" y="445.2969"/><line style="stroke:#181818;stroke-width:0.5;" x1="1650" x2="1780.332" y1="471.5938" y2="471.5938"/><text fill="#000000" font-family="sans-serif" font-size="14" lengthAdjust="spacing" textLength="110.332" x="1660" y="463.292">COMBAT_MODE</text></g><g id="game.GENERATE_MAP"><rect fill="#F1F1F1" height="50" rx="12.5" ry="12.5" style="stroke:#181818;stroke-width:0.5;" width="132.8135" x="1481.5" y="445.2969"/><line style="stroke:#181818;stroke-width:0.5;" x1="1481.5" x2="1614.3135" y1="471.5938" y2="471.5938"/><text fill="#000000" font-family="sans-serif" font-size="14" lengthAdjust="spacing" textLength="112.8135" x="1491.5" y="463.292">GENERATE_MAP</text></g><g id="game.STATS_MODE"><rect fill="#F1F1F1" height="50" rx="12.5" ry="12.5" style="stroke:#181818;stroke-width:0.5;" width="114.1787" x="1332" y="445.2969"/><line style="stroke:#181818;stroke-width:0.5;" x1="1332" x2="1446.1787" y1="471.5938" y2="471.5938"/><text fill="#000000" font-family="sans-serif" font-size="14" lengthAdjust="spacing" textLength="94.1787" x="1342" y="463.292">STATS_MODE</text></g><g id="game.EXIT"><rect fill="#F1F1F1" height="50" rx="12.5" ry="12.5" style="stroke:#181818;stroke-width:0.5;" width="51.1172" x="1245.5" y="445.2969"/><line style="stroke:#181818;stroke-width:0.5;" x1="1245.5" x2="1296.6172" y1="471.5938" y2="471.5938"/><text fill="#000000" font-family="sans-serif" font-size="14" lengthAdjust="spacing" textLength="31.1172" x="1255.5" y="463.292">EXIT</text></g><g id="menu.MENU_START_GAME"><rect fill="#F1F1F1" height="50" rx="12.5" ry="12.5" style="stroke:#181818;stroke-width:0.5;" width="162.29" x="358" y="266.2969"/><line style="stroke:#181818;stroke-width:0.5;" x1="358" x2="520.29" y1="292.5938" y2="292.5938"/><text fill="#000000" font-family="sans-serif" font-size="14" lengthAdjust="spacing" textLength="142.29" x="368" y="284.292">MENU_START_GAME</text></g><g id="menu.MENU_CONTINUE"><rect fill="#F1F1F1" height="50" rx="12.5" ry="12.5" style="stroke:#181818;stroke-width:0.5;" width="142.1582" x="666" y="90.7969"/><line style="stroke:#181818;stroke-width:0.5;" x1="666" x2="808.1582" y1="117.0938" y2="117.0938"/><text fill="#000000" font-family="sans-serif" font-size="14" lengthAdjust="spacing" textLength="122.1582" x="676" y="108.792">MENU_CONTINUE</text></g><g id="menu.MENU_SAVE_GAME"><rect fill="#F1F1F1" height="50" rx="12.5" ry="12.5" style="stroke:#181818;stroke-width:0.5;" width="153.8818" x="995" y="266.2969"/><line style="stroke:#181818;stroke-width:0.5;" x1="995" x2="1148.8818" y1="292.5938" y2="292.5938"/><text fill="#000000" font-family="sans-serif" font-size="14" lengthAdjust="spacing" textLength="133.8818" x="1005" y="284.292">MENU_SAVE_GAME</text></g><g id="menu.MENU_LOAD_GAME"><rect fill="#F1F1F1" height="50" rx="12.5" ry="12.5" style="stroke:#181818;stroke-width:0.5;" width="156.1719" x="555" y="266.2969"/><line style="stroke:#181818;stroke-width:0.5;" x1="555" x2="711.1719" y1="292.5938" y2="292.5938"/><text fill="#000000" font-family="sans-serif" font-size="14" lengthAdjust="spacing" textLength="136.1719" x="565" y="284.292">MENU_LOAD_GAME</text></g><g id="menu.MENU_CHANGE_LANGUAGE"><rect fill="#F1F1F1" height="50" rx="12.5" ry="12.5" style="stroke:#181818;stroke-width:0.5;" width="213.9082" x="746" y="266.2969"/><line style="stroke:#181818;stroke-width:0.5;" x1="746" x2="959.9082" y1="292.5938" y2="292.5938"/><text fill="#000000" font-family="sans-serif" font-size="14" lengthAdjust="spacing" textLength="193.9082" x="756" y="284.292">MENU_CHANGE_LANGUAGE</text></g><g id="menu.MENU_EXIT"><rect fill="#F1F1F1" height="50" rx="12.5" ry="12.5" style="stroke:#181818;stroke-width:0.5;" width="99.7617" x="211" y="445.2969"/><line style="stroke:#181818;stroke-width:0.5;" x1="211" x2="310.7617" y1="471.5938" y2="471.5938"/><text fill="#000000" font-family="sans-serif" font-size="14" lengthAdjust="spacing" textLength="79.7617" x="221" y="463.292">MENU_EXIT</text></g><ellipse cx="2136" cy="470.2969" fill="#222222" rx="10" ry="10" style="stroke:#222222;stroke-width:1;"/><!--reverse link game to menu--><!--reverse link MAIN_MENU to *start*--><g id="link_MAIN_MENU_*start*"><path d="M2010.7356,439.4429 C2022.3056,397.5029 2048.33,325.8469 2089.5,351.2969 C2127.8,374.9669 2134.6,435.9269 2135.77,460.1469 " fill="transparent" id="MAIN_MENU-backto-*start*" style="stroke:#181818;stroke-width:1;"/><polygon fill="#181818" points="2009.14,445.2269,2015.3894,437.6147,2010.4697,440.4069,2007.6775,435.4872,2009.14,445.2269" style="stroke:#181818;stroke-width:1;"/></g><!--link MAIN_MENU to MENU_CONTINUE--><g id="link_MAIN_MENU_MENU_CONTINUE"><path d="M1986.85,445.0869 C1973.92,427.1169 1954.45,402.9269 1933,386.2969 C1900.64,361.2069 1888.23,360.9769 1850,346.2969 C1595.41,248.5469 1529.53,221.8869 1261,174.2969 C1064.07,139.3969 1007.64,185.8069 812,144.2969 C807.52,143.3469 808.7168,143.8436 804.1568,142.5336 " fill="transparent" id="MAIN_MENU-to-MENU_CONTINUE" style="stroke:#181818;stroke-width:1;"/><polygon fill="#181818" points="798.39,140.8769,805.9357,147.2064,803.1956,142.2574,808.1446,139.5174,798.39,140.8769" style="stroke:#181818;stroke-width:1;"/><text fill="#000000" font-family="sans-serif" font-size="13" lengthAdjust="spacing" textLength="4.3799" x="1830.1731" y="288.3638">/</text><text fill="#000000" font-family="sans-serif" font-size="13" lengthAdjust="spacing" textLength="120.7261" x="1772" y="303.4966">menu_active=true</text></g><!--link MENU_CONTINUE to MENU_START_GAME--><g id="link_MENU_CONTINUE_MENU_START_GAME"><path d="M665.97,118.7669 C578.56,122.8669 437.68,135.4769 405,174.2969 C382.97,200.4669 399.4133,235.3705 416.7133,260.8905 " fill="transparent" id="MENU_CONTINUE-to-MENU_START_GAME" style="stroke:#181818;stroke-width:1;"/><polygon fill="#181818" points="420.08,265.8569,418.3409,256.1628,417.2744,261.7182,411.719,260.6518,420.08,265.8569" style="stroke:#181818;stroke-width:1;"/><text fill="#000000" font-family="sans-serif" font-size="13" lengthAdjust="spacing" textLength="87.458" x="424.7573" y="194.8638">input=ENTER</text><text fill="#000000" font-family="sans-serif" font-size="13" lengthAdjust="spacing" textLength="124.8457" x="406.0635" y="209.9966">selected_index=0 /</text><text fill="#000000" font-family="sans-serif" font-size="13" lengthAdjust="spacing" textLength="124.9727" x="406" y="225.1294">menu_active=false</text></g><!--link MENU_CONTINUE to MENU_CONTINUE--><g id="link_MENU_CONTINUE_MENU_CONTINUE"><path d="M808.09,107.5969 C827.86,107.9669 843,110.7069 843,115.7969 C843,120.8869 833.8589,123.5146 814.0889,123.8846 " fill="transparent" id="MENU_CONTINUE-to-MENU_CONTINUE" style="stroke:#181818;stroke-width:1;"/><polygon fill="#181818" points="808.09,123.9969,817.1633,127.8278,813.0891,123.9033,817.0136,119.8292,808.09,123.9969" style="stroke:#181818;stroke-width:1;"/><text fill="#000000" font-family="sans-serif" font-size="13" lengthAdjust="spacing" textLength="87.458" x="867.7573" y="105.3638">input=ENTER</text><text fill="#000000" font-family="sans-serif" font-size="13" lengthAdjust="spacing" textLength="124.8457" x="849.0635" y="120.4966">selected_index=1 /</text><text fill="#000000" font-family="sans-serif" font-size="13" lengthAdjust="spacing" textLength="124.9727" x="849" y="135.6294">menu_active=false</text></g><!--link MENU_CONTINUE to MENU_CONTINUE--><g id="link_MENU_CONTINUE_MENU_CONTINUE"><path d="M808.1,102.0969 C881.79,95.6969 979,100.2669 979,115.7969 C979,131.3269 887.7675,136.416 814.0775,130.016 " fill="transparent" id="MENU_CONTINUE-to-MENU_CONTINUE-1" style="stroke:#181818;stroke-width:1;"/><polygon fill="#181818" points="808.1,129.4969,816.7201,134.2606,813.0812,129.9295,817.4123,126.2906,808.1,129.4969" style="stroke:#181818;stroke-width:1;"/><text fill="#000000" font-family="sans-serif" font-size="13" lengthAdjust="spacing" textLength="78.3872" x="1008.2927" y="112.8638">input=ESC /</text><text fill="#000000" font-family="sans-serif" font-size="13" lengthAdjust="spacing" textLength="124.9727" x="985" y="127.9966">menu_active=false</text></g><!--link MENU_CONTINUE to MENU_SAVE_GAME--><g id="link_MENU_CONTINUE_MENU_SAVE_GAME"><path d="M800.61,140.8869 C804.44,142.0969 808.26,143.2469 812,144.2969 C877.87,162.7969 903.16,141.1169 963,174.2969 C1003.36,196.6769 1034.0079,234.3124 1052.8279,261.1824 " fill="transparent" id="MENU_CONTINUE-to-MENU_SAVE_GAME" style="stroke:#181818;stroke-width:1;"/><polygon fill="#181818" points="1056.27,266.0969,1054.3831,256.4305,1053.4016,262.0015,1047.8305,261.02,1056.27,266.0969" style="stroke:#181818;stroke-width:1;"/><text fill="#000000" font-family="sans-serif" font-size="13" lengthAdjust="spacing" textLength="87.458" x="1052.7573" y="187.3638">input=ENTER</text><text fill="#000000" font-family="sans-serif" font-size="13" lengthAdjust="spacing" textLength="116.3335" x="1038.3196" y="202.4966">selected_index=2</text><text fill="#000000" font-family="sans-serif" font-size="13" lengthAdjust="spacing" textLength="112.4805" x="1040.2461" y="217.6294">name_length&gt;0 /</text><text fill="#000000" font-family="sans-serif" font-size="13" lengthAdjust="spacing" textLength="124.9727" x="1034" y="232.7622">menu_active=false</text></g><!--link MENU_CONTINUE to MENU_LOAD_GAME--><g id="link_MENU_CONTINUE_MENU_LOAD_GAME"><path d="M665.7,118.9369 C624.79,124.2869 576.44,138.5069 550,174.2969 C533.63,196.4569 536.86,212.0769 550,236.2969 C556.64,248.5369 562.4163,255.081 574.0063,262.901 " fill="transparent" id="MENU_CONTINUE-to-MENU_LOAD_GAME" style="stroke:#181818;stroke-width:1;"/><polygon fill="#181818" points="578.98,266.2569,573.7566,257.9072,574.8352,263.4603,569.2821,264.5389,578.98,266.2569" style="stroke:#181818;stroke-width:1;"/><text fill="#000000" font-family="sans-serif" font-size="13" lengthAdjust="spacing" textLength="87.458" x="578.3457" y="187.3638">input=ENTER</text><text fill="#000000" font-family="sans-serif" font-size="13" lengthAdjust="spacing" textLength="116.3335" x="563.908" y="202.4966">selected_index=3</text><text fill="#000000" font-family="sans-serif" font-size="13" lengthAdjust="spacing" textLength="142.1494" x="551" y="217.6294">valid_selection=true /</text><text fill="#000000" font-family="sans-serif" font-size="13" lengthAdjust="spacing" textLength="124.9727" x="559.5884" y="232.7622">menu_active=false</text></g><!--link MENU_CONTINUE to MENU_CHANGE_LANGUAGE--><g id="link_MENU_CONTINUE_MENU_CHANGE_LANGUAGE"><path d="M728.97,140.9169 C721.98,166.6869 715.56,207.6869 734,236.2969 C742.17,248.9769 748.9063,255.7652 762.1263,263.2352 " fill="transparent" id="MENU_CONTINUE-to-MENU_CHANGE_LANGUAGE" style="stroke:#181818;stroke-width:1;"/><polygon fill="#181818" points="767.35,266.1869,761.4822,258.2768,762.9969,263.7271,757.5466,265.2418,767.35,266.1869" style="stroke:#181818;stroke-width:1;"/><text fill="#000000" font-family="sans-serif" font-size="13" lengthAdjust="spacing" textLength="87.458" x="753.6938" y="194.8638">input=ENTER</text><text fill="#000000" font-family="sans-serif" font-size="13" lengthAdjust="spacing" textLength="124.8457" x="735" y="209.9966">selected_index=4 /</text><text fill="#000000" font-family="sans-serif" font-size="13" lengthAdjust="spacing" textLength="12.397" x="791.2244" y="225.1294">...</text></g><!--link MENU_CHANGE_LANGUAGE to MENU_CONTINUE--><g id="link_MENU_CHANGE_LANGUAGE_MENU_CONTINUE"><path d="M863.54,266.0069 C872.64,240.9769 881.76,201.8369 864,174.2969 C859.82,167.8169 833.8408,155.829 803.2508,143.119 " fill="transparent" id="MENU_CHANGE_LANGUAGE-to-MENU_CONTINUE" style="stroke:#181818;stroke-width:1;"/><polygon fill="#181818" points="797.71,140.8169,804.4864,147.964,802.3273,142.7353,807.5559,140.5763,797.71,140.8169" style="stroke:#181818;stroke-width:1;"/><text fill="#000000" font-family="sans-serif" font-size="13" lengthAdjust="spacing" textLength="78.3872" x="876" y="209.8638">input=ESC /</text></g><!--link MENU_CONTINUE to MENU_EXIT--><g id="link_MENU_CONTINUE_MENU_EXIT"><path d="M665.86,121.7569 C594.16,128.3169 481.11,142.9369 388,174.2969 C305.1,202.2169 259.14,191.3669 214,266.2969 C179.28,323.9369 216.6617,399.8754 241.4317,439.8854 " fill="transparent" id="MENU_CONTINUE-to-MENU_EXIT" style="stroke:#181818;stroke-width:1;"/><polygon fill="#181818" points="244.59,444.9869,243.2535,435.2291,241.9581,440.7356,236.4516,439.4402,244.59,444.9869" style="stroke:#181818;stroke-width:1;"/><text fill="#000000" font-family="sans-serif" font-size="13" lengthAdjust="spacing" textLength="87.458" x="233.6938" y="288.3638">input=ENTER</text><text fill="#000000" font-family="sans-serif" font-size="13" lengthAdjust="spacing" textLength="124.8457" x="215" y="303.4966">selected_index=5 /</text></g><!--link MENU_CONTINUE to MENU_EXIT--><g id="link_MENU_CONTINUE_MENU_EXIT"><path d="M665.97,119.2969 C545.05,124.4569 304.93,138.9369 229,174.2969 C159.71,206.5669 105.77,244.5069 132,316.2969 C151.61,369.9769 194.7452,413.9181 226.3252,441.2781 " fill="transparent" id="MENU_CONTINUE-to-MENU_EXIT-1" style="stroke:#181818;stroke-width:1;"/><polygon fill="#181818" points="230.86,445.2069,226.677,436.2904,227.081,441.9329,221.4386,442.3368,230.86,445.2069" style="stroke:#181818;stroke-width:1;"/><text fill="#000000" font-family="sans-serif" font-size="13" lengthAdjust="spacing" textLength="59.9917" x="133" y="295.8638">input=c /</text></g><!--link MENU_CHANGE_LANGUAGE to MENU_EXIT--><g id="link_MENU_CHANGE_LANGUAGE_MENU_EXIT"><path d="M745.73,313.6769 C739.74,314.6269 733.8,315.5069 728,316.2969 C645.16,327.5269 426.2,305.9069 353,346.2969 C312.96,368.3869 287.8691,410.6742 273.9591,439.7542 " fill="transparent" id="MENU_CHANGE_LANGUAGE-to-MENU_EXIT" style="stroke:#181818;stroke-width:1;"/><polygon fill="#181818" points="271.37,445.1669,278.862,438.7739,273.5276,440.6563,271.6452,435.3219,271.37,445.1669" style="stroke:#181818;stroke-width:1;"/><text fill="#000000" font-family="sans-serif" font-size="13" lengthAdjust="spacing" textLength="59.9917" x="354" y="366.8638">input=c /</text></g><!--link MENU_EXIT to MENU_EXIT--><g id="link_MENU_EXIT_MENU_EXIT"><path d="M311.19,450.1069 C330.24,449.3269 346,456.0569 346,470.2969 C346,484.5369 336.235,491.5123 317.185,490.7323 " fill="transparent" id="MENU_EXIT-to-MENU_EXIT" style="stroke:#181818;stroke-width:1;"/><polygon fill="#181818" points="311.19,490.4869,320.0188,494.8517,316.1858,490.6914,320.3461,486.8584,311.19,490.4869" style="stroke:#181818;stroke-width:1;"/><text fill="#000000" font-family="sans-serif" font-size="13" lengthAdjust="spacing" textLength="93.3486" x="367.812" y="467.3638">confirm=YES /</text><text fill="#000000" font-family="sans-serif" font-size="13" lengthAdjust="spacing" textLength="124.9727" x="352" y="482.4966">menu_active=false</text></g><!--link MENU_START_GAME to GENERATE_MAP--><g id="link_MENU_START_GAME_GENERATE_MAP"><path d="M450.72,316.6569 C462.15,337.2969 481.65,365.5169 508,378.2969 C531.9,389.8869 1439.48,376.1069 1464,386.2969 C1492.78,398.2569 1513.3985,420.4705 1528.3285,440.4505 " fill="transparent" id="MENU_START_GAME-to-GENERATE_MAP" style="stroke:#181818;stroke-width:1;"/><polygon fill="#181818" points="1531.92,445.2569,1529.7369,435.653,1528.9271,441.2516,1523.3285,440.4417,1531.92,445.2569" style="stroke:#181818;stroke-width:1;"/><text fill="#000000" font-family="sans-serif" font-size="13" lengthAdjust="spacing" textLength="133.4849" x="520.2544" y="359.3638">menu_active=false /</text><text fill="#000000" font-family="sans-serif" font-size="13" lengthAdjust="spacing" textLength="155.9937" x="509" y="374.4966">game_in_progress=true</text></g><!--link MENU_CONTINUE to MAP_MODE--><g id="link_MENU_CONTINUE_MAP_MODE"><path d="M798.82,140.9169 C803.25,142.1869 807.67,143.3369 812,144.2969 C966.6,178.5269 1016.16,126.1369 1167,174.2969 C1310.12,219.9969 1332.44,263.7969 1458,346.2969 C1478.21,359.5769 1479.11,370.5069 1502,378.2969 C1533.15,388.8969 1768.51,371.7069 1798,386.2969 C1823.06,398.6969 1838.9105,420.1275 1850.1205,439.8975 " fill="transparent" id="MENU_CONTINUE-to-MAP_MODE" style="stroke:#181818;stroke-width:1;"/><polygon fill="#181818" points="1853.08,445.1169,1852.1203,435.3149,1850.6138,440.7674,1845.1612,439.2608,1853.08,445.1169" style="stroke:#181818;stroke-width:1;"/><text fill="#000000" font-family="sans-serif" font-size="13" lengthAdjust="spacing" textLength="133.4849" x="1413" y="295.8638">menu_active=false /</text></g><!--link MENU_SAVE_GAME to MAP_MODE--><g id="link_MENU_SAVE_GAME_MAP_MODE"><path d="M1125.12,316.3469 C1174.26,337.2369 1249.93,366.0269 1319,378.2969 C1345.2,382.9569 1774.08,374.6169 1798,386.2969 C1823.13,398.5669 1838.9702,420.0121 1850.1602,439.8321 " fill="transparent" id="MENU_SAVE_GAME-to-MAP_MODE" style="stroke:#181818;stroke-width:1;"/><polygon fill="#181818" points="1853.11,445.0569,1852.1685,435.2531,1850.6518,440.7029,1845.2021,439.1862,1853.11,445.0569" style="stroke:#181818;stroke-width:1;"/><text fill="#000000" font-family="sans-serif" font-size="13" lengthAdjust="spacing" textLength="133.4849" x="1320" y="366.8638">menu_active=false /</text></g><!--link MENU_LOAD_GAME to MAP_MODE--><g id="link_MENU_LOAD_GAME_MAP_MODE"><path d="M711.1,312.6669 C797.45,334.0369 941.03,366.1769 1067,378.2969 C1087.21,380.2369 1779.73,377.4369 1798,386.2969 C1823.16,398.4969 1839.0044,419.9497 1850.1844,439.7897 " fill="transparent" id="MENU_LOAD_GAME-to-MAP_MODE" style="stroke:#181818;stroke-width:1;"/><polygon fill="#181818" points="1853.13,445.0169,1852.1964,435.2124,1850.6754,440.6609,1845.2268,439.1398,1853.13,445.0169" style="stroke:#181818;stroke-width:1;"/><text fill="#000000" font-family="sans-serif" font-size="13" lengthAdjust="spacing" textLength="124.9727" x="1071.123" y="359.3638">menu_active=false</text><text fill="#000000" font-family="sans-serif" font-size="13" lengthAdjust="spacing" textLength="131.2188" x="1068" y="374.4966">load_success=true /</text></g><!--link MENU_LOAD_GAME to GENERATE_MAP--><g id="link_MENU_LOAD_GAME_GENERATE_MAP"><path d="M647.3,316.3269 C661.16,337.0569 684.28,365.6069 713,378.2969 C751.16,395.1569 1425.49,370.2369 1464,386.2969 C1492.76,398.2869 1513.3873,420.4914 1528.3173,440.4614 " fill="transparent" id="MENU_LOAD_GAME-to-GENERATE_MAP" style="stroke:#181818;stroke-width:1;"/><polygon fill="#181818" points="1531.91,445.2669,1529.7246,435.6635,1528.9161,441.2623,1523.3173,440.4538,1531.91,445.2669" style="stroke:#181818;stroke-width:1;"/><text fill="#000000" font-family="sans-serif" font-size="13" lengthAdjust="spacing" textLength="124.9727" x="719.2463" y="359.3638">menu_active=false</text><text fill="#000000" font-family="sans-serif" font-size="13" lengthAdjust="spacing" textLength="135.4653" x="714" y="374.4966">load_success=false /</text></g><!--link MENU_CHANGE_LANGUAGE to MAIN_MENU--><g id="link_MENU_CHANGE_LANGUAGE_MAIN_MENU"><path d="M960.25,313.8069 C966.24,314.7269 972.19,315.5669 978,316.2969 C1191.82,343.3369 1247.44,325.8869 1462,346.2969 C1573.08,356.8669 1599.8,369.1669 1711,378.2969 C1735.6,380.3169 1910.81,375.4969 1933,386.2969 C1958.59,398.7569 1975.2535,420.2577 1987.1535,440.0077 " fill="transparent" id="MENU_CHANGE_LANGUAGE-to-MAIN_MENU" style="stroke:#181818;stroke-width:1;"/><polygon fill="#181818" points="1990.25,445.1469,1989.0313,435.3737,1987.6696,440.8642,1982.1791,439.5024,1990.25,445.1469" style="stroke:#181818;stroke-width:1;"/><text fill="#000000" font-family="sans-serif" font-size="13" lengthAdjust="spacing" textLength="133.4849" x="1712" y="366.8638">menu_active=false /</text></g><!--link MENU_EXIT to EXIT--><g id="link_MENU_EXIT_EXIT"><path d="M311.09,470.2969 C492.39,470.2969 1104.85,470.2969 1239.14,470.2969 " fill="transparent" id="MENU_EXIT-to-EXIT" style="stroke:#181818;stroke-width:1;"/><polygon fill="#181818" points="1245.14,470.2969,1236.14,466.2969,1240.14,470.2969,1236.14,474.2969,1245.14,470.2969" style="stroke:#181818;stroke-width:1;"/><text fill="#000000" font-family="sans-serif" font-size="13" lengthAdjust="spacing" textLength="133.4849" x="711.75" y="463.3638">menu_active=false /</text></g><!--SRC=[bLHHIyCm47xlhmW-gRWwftjGc12tC0UsaxKJnKeeRJO3RJhQT0ZYVpVfjgojMUkWbEJwtNVttLsFKnuHSE9mdnCmeluozUFu0eWx2-z0zzRizirUjzS7fo5PaoXPdPqOHbQWbtvCjiUOiDoGBz1v_wHXIDX7lkhSRo0bEFWs0DXSBJYniONiUSdoZAtf22d3S6ezGBTg6oCRpQ2Bi40he-D2rwdYqEl4DNuCu_ty0tGYik0Yctr8TG8TQHS7F9pQxiIU8t07BZqcjM0_u7HD1ZpDbOX2Oqc4z1JHPouUGmjLxJl66Xg-80tuQGf7Eev7Q8yHVXBlEHpNFXOQ0H1FLO7IjCzCgA9ibVC1ibqqyrX68X9m4cBAGl8rwDOrB_me8uU9IyLgehqwabRLfeMtvp4cfWb7X2tvv_snsQjQjuIvzjZQZsY8DtQQi68MZgrLjOKjCMyakscQX_barrj8-k2oSIug5441rgRQv73CS3Z3vfeT2gjdAWKlygfd6IHiGTDuy8QSGs7bPgZ_8PAcl5q4qnzNoIVtcAWpNgN9CYLPjjaFcbfirvcUnwWD_7yzzhFRvk6nAF75xEP1iCjIJz8ckaPKIKVREhLS6tIepcsRfW7-0W00]--></g></svg>